<?xml version="1.0" encoding="utf-8"?>
<!-- Generator: Adobe Illustrator 26.0.2, SVG Export Plug-In . SVG Version: 6.00 Build 0)  -->
<svg version="1.1" id="Layer_6" xmlns="http://www.w3.org/2000/svg" xmlns:xlink="http://www.w3.org/1999/xlink" x="0px" y="0px"
	 viewBox="0 0 70 70" style="enable-background:new 0 0 70 70;" xml:space="preserve">
<style type="text/css">
	.st0{fill:#A2D7A2;}
	.st1{fill:#17393F;}
	.st2{fill:#3B6A79;}
	.st3{fill:#A03607;}
	.st4{fill:#FF6000;}
</style>
<g>
	<path class="st0" d="M67.1,67.67H2.96c-1.07,0-1.93-0.86-1.93-1.93l0,0c0-1.07,0.86-1.93,1.93-1.93H67.1
		c1.07,0,1.93,0.86,1.93,1.93l0,0C69.03,66.81,68.16,67.67,67.1,67.67z"/>
	<g>
		<g>
			<g>
				<path class="st1" d="M10.89,64.35c-0.13,0-0.27-0.02-0.4-0.07c-0.61-0.22-0.92-0.9-0.7-1.51l5.85-15.96
					c0.17-0.46,0.61-0.77,1.1-0.77h15.45c0.65,0,0.64,0.59,0.64,1.24c0,0.65,0,1.11-0.64,1.11H17.56L12,63.58
					C11.82,64.06,11.37,64.35,10.89,64.35z"/>
			</g>
			<g>
				<path class="st2" d="M16.99,47.81l-5.75,15.3c-0.16,0.44-0.57,0.72-1.01,0.74c0.03,0.02,0.06,0.03,0.1,0.05
					c0.13,0.05,0.26,0.07,0.4,0.07c0.47,0,0.91-0.29,1.08-0.76l5.55-15.08h14.35c0.49,0,0.91-0.31,1.08-0.75
					c-0.43,0.36-0.9,0.42-1.44,0.42H16.99z"/>
			</g>
			<g>
				<path class="st1" d="M58.88,64.35c0.13,0,0.27-0.02,0.4-0.07c0.61-0.22,0.92-0.9,0.7-1.51l-5.85-15.96
					c-0.17-0.46-0.61-0.77-1.1-0.77H37.58c-0.65,0-0.53,0.52-0.53,1.17s-0.12,1.18,0.53,1.18h14.63l5.57,15.19
					C57.95,64.06,58.4,64.35,58.88,64.35z"/>
			</g>
			<g>
				<path class="st2" d="M52.79,47.81l5.75,15.3c0.16,0.44,0.57,0.72,1.01,0.74c-0.03,0.02-0.06,0.03-0.1,0.05
					c-0.13,0.05-0.26,0.07-0.4,0.07c-0.47,0-0.91-0.29-1.08-0.76l-5.55-15.08H38.06c-0.49,0-0.91-0.31-1.08-0.75
					c0.43,0.36,0.9,0.42,1.44,0.42H52.79z"/>
			</g>
		</g>
		<g>
			<g>
				<path class="st3" d="M58.79,40.42H35.18v3.41c1.07,0.11,1.94,0.84,2.25,1.82h21.36c0.96,0,1.74-0.78,1.74-1.74v-1.76
					C60.53,41.2,59.75,40.42,58.79,40.42z"/>
				<path class="st3" d="M34.6,43.84v-3.41H10.98c-0.96,0-1.74,0.78-1.74,1.74v1.76c0,0.96,0.78,1.74,1.74,1.74h21.37
					C32.66,44.68,33.53,43.95,34.6,43.84z"/>
				<path class="st4" d="M9.96,44.58v-1.62c0-0.88,0.74-1.6,1.66-1.6h22.44v-0.58H11.43c-0.92,0-1.66,0.72-1.66,1.6V44
					c0,0.28,0.08,0.53,0.21,0.76C9.97,44.7,9.96,44.65,9.96,44.58z"/>
				<path class="st4" d="M59.82,44.58v-1.62c0-0.88-0.74-1.6-1.66-1.6H35.72v-0.58h22.62c0.92,0,1.66,0.72,1.66,1.6V44
					c0,0.28-0.08,0.53-0.21,0.76C59.81,44.7,59.82,44.65,59.82,44.58z"/>
			</g>
			<path class="st1" d="M34.89,49.93c-1.96,0-3.56-1.56-3.56-3.48c0-1.92,1.6-3.48,3.56-3.48c1.96,0,3.56,1.56,3.56,3.48
				C38.45,48.37,36.85,49.93,34.89,49.93z M34.89,44.65c-0.99,0-1.8,0.81-1.8,1.8c0,0.99,0.81,1.8,1.8,1.8s1.8-0.81,1.8-1.8
				C36.69,45.45,35.88,44.65,34.89,44.65z"/>
		</g>
		<g>
			<g>
				<path class="st1" d="M45.03,30.42l-4.38-15.71c-0.31-1.12-1.34-1.9-2.5-1.9H36.8l0.63-0.63v-0.05c0-0.67-0.55-1.22-1.22-1.22
					h-0.69h-1.37h-0.6c-0.67,0-1.22,0.55-1.22,1.22v0.05l0.63,0.63h-1.34c-1.17,0-2.19,0.78-2.5,1.9l-4.38,15.71
					c-0.28,1.01,0.07,2.09,0.89,2.74l1.95,1.66c-0.34,0.11-0.59,0.43-0.59,0.81v0.95c0,0.47,0.38,0.85,0.85,0.85h14.06
					c0.47,0,0.85-0.38,0.85-0.85v-0.95c0-0.38-0.25-0.69-0.59-0.81l1.95-1.66C44.96,32.51,45.31,31.43,45.03,30.42z M41.75,33.51
					l-1.76,1.27h-3.08v-1.05h0.59v-0.51l1.27-0.9c0.11-0.08,0.18-0.21,0.18-0.35v-0.29c0-0.24-0.19-0.43-0.43-0.43h-3.49h-0.3h-3.49
					c-0.24,0-0.43,0.19-0.43,0.43v0.29c0,0.14,0.07,0.27,0.18,0.35l1.27,0.9v0.51h0.59v1.05h-3.08l-1.76-1.27
					c-0.82-0.59-1.17-1.58-0.89-2.49l3.64-15.52c0.31-1.03,1.34-1.73,2.5-1.73h0.01v0.93h-0.65v0.73h4.5v-0.73h-0.65v-0.93h0.01
					c1.17,0,2.19,0.71,2.5,1.73l3.64,15.52C42.92,31.93,42.57,32.91,41.75,33.51z"/>
				<path class="st1" d="M41.58,39.32l-1.3-2.21h-1.01H30.5h-1.01l-1.3,2.21c-0.24,0.4,0.05,0.91,0.52,0.91h1.79h8.77h1.79
					C41.53,40.23,41.82,39.72,41.58,39.32z"/>
				<path class="st1" d="M40.61,26.89L40.61,26.89c-0.01-0.06-1.14-6.08-1.65-8.57c-0.33-1.61-1.52-2.68-3.54-3.19l-0.01-0.21
					l-0.31,0.05c-0.06,0.01-0.11,0.02-0.16,0.03l-0.05,0.01L34.84,15c-0.05-0.01-0.11-0.02-0.16-0.03l-0.31-0.05l-0.01,0.21
					c-2.02,0.51-3.21,1.58-3.54,3.19c-0.51,2.49-1.64,8.51-1.65,8.57c-0.22,1.21,0.35,2.42,1.43,3c0.68,0.37,1.17,0.7,1.42,0.95
					c0.6,0.6,0.46,0.96,0.46,0.96l-0.2,0.4h4.76l0.41-0.01l-0.15-0.38c-0.01-0.01-0.14-0.37,0.46-0.97
					c0.25-0.25,0.74-0.58,1.42-0.95C40.26,29.31,40.83,28.1,40.61,26.89z M38.91,29.4c-0.74,0.4-1.26,0.75-1.55,1.04
					c-0.49,0.49-0.62,0.91-0.64,1.2h-3.67c-0.01-0.29-0.14-0.71-0.64-1.2c-0.29-0.29-0.81-0.64-1.55-1.04
					c-0.87-0.47-1.33-1.44-1.15-2.41c0.01-0.06,1.14-6.08,1.65-8.56c0.29-1.43,1.41-2.37,3.32-2.81l0.2-0.04l0.01,0l0.01,0l0.2,0.04
					c1.91,0.43,3.03,1.37,3.32,2.81c0.5,2.47,1.63,8.45,1.65,8.56C40.24,27.96,39.78,28.93,38.91,29.4z"/>
				<path class="st3" d="M34.37,29.66c0,0-2.57-0.39-2.66-2.16c-0.14-2.55,2.17-3.64,2.21-5.35c0,0,1.05,1.42,0.7,2.56
					c0.03-0.1,0.2-0.24,0.26-0.34c0.19-0.29,0.32-0.62,0.35-0.95c0.05-0.46-0.09-0.92-0.38-1.31c-0.2-0.28-0.51-0.46-0.72-0.71
					c-0.48-0.56,0.08-1.44,0.56-1.84c0.01,1.02,0.94,1.84,1.68,2.65c0.62,0.67,1.15,1.41,1.45,2.22c0.3,0.81,0.37,2.21,0.05,3.02
					c-0.42,1.08-1.54,1.63-2.77,2.07"/>
				<path class="st1" d="M34.89,32.2L34.89,32.2c-0.34,0-0.61-0.27-0.61-0.61v-3.4c0-0.34,0.27-0.61,0.61-0.61h0
					c0.34,0,0.61,0.27,0.61,0.61v3.4C35.5,31.93,35.23,32.2,34.89,32.2z"/>
				<path class="st1" d="M43.83,31.69c-3.73-1.65-6.48-3.51-8.51-5.34c4.98-4.71,5.32-9.13,5.34-9.39l-0.56-0.03
					c0,0.06-0.35,4.39-5.21,9.02c-4.86-4.63-5.21-8.96-5.21-9.02l-0.56,0.03c0.01,0.26,0.35,4.68,5.34,9.39
					c-2.03,1.83-4.77,3.69-8.51,5.34l0.23,0.51c3.83-1.69,6.64-3.58,8.71-5.45c2.07,1.87,4.89,3.76,8.71,5.45L43.83,31.69z"/>
				<g>
					<path class="st1" d="M27.39,21.31c-0.61-0.16-1.25,0.26-1.43,0.94s0.16,1.37,0.76,1.53c0.61,0.16,1.25-0.26,1.43-0.94
						C28.34,22.16,28,21.47,27.39,21.31z"/>
					<path class="st1" d="M43.81,22.25c-0.18-0.68-0.82-1.11-1.43-0.94c-0.61,0.16-0.95,0.85-0.76,1.53
						c0.18,0.68,0.82,1.11,1.43,0.94C43.66,23.62,44,22.93,43.81,22.25z"/>
				</g>
				<path class="st1" d="M34.89,2.71c-5.84,0-10.07,8.89-10.07,14.88c0,3.21,1.11,5.46,3.35,6.79c0.03-0.37,0.18-0.72,0.45-1.06
					c-1.81-1.16-2.68-3.05-2.68-5.73c0-6.07,4.22-13.76,8.95-13.76c4.74,0,8.95,7.69,8.95,13.76c0,2.31-0.65,4.03-1.98,5.2
					c0.33,0.27,0.59,0.55,0.76,0.86c1.56-1.37,2.34-3.38,2.34-6.06C44.96,11.6,40.73,2.71,34.89,2.71z"/>
				<path class="st1" d="M34.89,2.71c-5.84,0-10.07,8.89-10.07,14.88c0,3.21,1.11,5.46,3.35,6.79c0.03-0.37,0.18-0.72,0.45-1.06
					c-1.81-1.16-2.68-3.05-2.68-5.73c0-6.07,4.22-13.76,8.95-13.76c4.74,0,8.95,7.69,8.95,13.76c0,2.31-0.65,4.03-1.98,5.2
					c0.33,0.27,0.59,0.55,0.76,0.86c1.56-1.37,2.34-3.38,2.34-6.06C44.96,11.6,40.73,2.71,34.89,2.71z"/>
				<g>
					<path class="st2" d="M34.89,3.33c5.67,0,9.79,8.49,9.91,14.39c0-0.05,0.01-0.1,0.01-0.15c0-5.9-4.17-14.65-9.92-14.65
						s-9.92,8.75-9.92,14.65c0,0.05,0.01,0.09,0.01,0.14C25.1,11.81,29.22,3.33,34.89,3.33z"/>
				</g>
			</g>
			<path class="st1" d="M34.9,9.23c0.38,0,0.7,0.31,0.7,0.69c0,0.38-0.31,0.69-0.7,0.69c-0.38,0-0.7-0.31-0.7-0.69
				C34.2,9.54,34.51,9.23,34.9,9.23 M34.9,8.7c-0.69,0-1.26,0.55-1.26,1.22s0.56,1.22,1.26,1.22c0.69,0,1.26-0.55,1.26-1.22
				S35.59,8.7,34.9,8.7L34.9,8.7z"/>
		</g>
	</g>
</g>
</svg>
