<?xml version="1.0" encoding="utf-8"?>
<!-- Generator: Adobe Illustrator 26.0.2, SVG Export Plug-In . SVG Version: 6.00 Build 0)  -->
<svg version="1.1" id="Layer_5" xmlns="http://www.w3.org/2000/svg" xmlns:xlink="http://www.w3.org/1999/xlink" x="0px" y="0px"
	 viewBox="0 0 70 70" style="enable-background:new 0 0 70 70;" xml:space="preserve">
<style type="text/css">
	.st0{fill:#A2D7A2;}
	.st1{fill:#254B54;}
	.st2{fill:#17393F;}
	.st3{fill:#3B6A79;}
	.st4{fill:#A03607;}
	.st5{fill:#FF6000;}
</style>
<g>
	<path class="st0" d="M67.1,67.67H2.96c-1.07,0-1.93-0.86-1.93-1.93l0,0c0-1.07,0.86-1.93,1.93-1.93H67.1
		c1.07,0,1.93,0.86,1.93,1.93l0,0C69.03,66.81,68.16,67.67,67.1,67.67z"/>
	<g>
		<g>
			<path class="st1" d="M10.55,65.88c-2.18-0.86-3.13-3.66-2.11-6.24l7.72-19.5c1.02-2.57,3.63-3.97,5.81-3.1
				c2.18,0.86,3.13,3.66,2.11,6.24l-7.72,19.5C15.34,65.35,12.74,66.74,10.55,65.88z M21.1,39.25c-1.15-0.46-2.52,0.28-3.06,1.63
				l-7.72,19.5c-0.54,1.36-0.04,2.83,1.11,3.28c1.15,0.46,2.52-0.28,3.06-1.63l7.72-19.5C22.75,41.18,22.25,39.71,21.1,39.25z"/>
		</g>
		
			<ellipse transform="matrix(0.3683 -0.9297 0.9297 0.3683 -5.7483 40.5265)" class="st1" cx="26.95" cy="24.49" rx="19.26" ry="19.43"/>
		
			<ellipse transform="matrix(0.3683 -0.9297 0.9297 0.3683 -5.3602 40.4398)" class="st2" cx="27.08" cy="24.16" rx="17.58" ry="17.74"/>
		<path class="st3" d="M32.08,11.53c8.23,3.26,12.54,12.15,10.2,20.41c0.26-0.5,0.5-1.02,0.71-1.56c3.45-8.7-0.87-18.57-9.65-22.04
			S14.67,9.1,11.22,17.8c-0.21,0.54-0.4,1.08-0.55,1.63C14.62,11.8,23.85,8.27,32.08,11.53z"/>
	</g>
	<g>
		<path class="st4" d="M57.03,61.85c-1.07-9-8.73-16.18-18.32-16.59c-10.17-0.44-18.83,6.89-19.95,16.59H57.03z"/>
		<polyline class="st4" points="47.7,49.82 59.58,45.15 64.05,46.8 53.05,54.98 		"/>
		<g>
			<g>
				<path class="st2" d="M37.9,38.93c6.36,0,9.29,2.5,10,8.96c0.46,0.27,0.9,0.55,1.33,0.85c-0.57-7.9-3.9-11.06-11.33-11.06
					c-7.5,0-10.81,3.22-11.34,11.28c0.43-0.31,0.87-0.61,1.33-0.88C28.55,41.48,31.48,38.93,37.9,38.93z"/>
			</g>
			<g>
				<path class="st1" d="M38.08,38.28c5.45,0,8.65,1.76,10.17,5.93c-1.46-4.42-4.68-6.29-10.29-6.29c-7.38,0-10.64,3.22-11.16,11.28
					c0.05-0.04,0.11-0.07,0.16-0.11C27.58,41.39,30.85,38.28,38.08,38.28z"/>
			</g>
			<g>
				<path class="st4" d="M42.95,40.56c-3.35-0.51-6.76-0.51-10.11,0c-0.58,0.09-1.04-0.32-1.04-0.93c0-0.29,0-0.58,0-0.86
					c0-0.61,0.47-1.19,1.04-1.28c3.35-0.51,6.76-0.51,10.11,0c0.58,0.09,1.04,0.67,1.04,1.28c0,0.29,0,0.58,0,0.86
					C43.99,40.25,43.53,40.65,42.95,40.56z"/>
				<path class="st5" d="M42.63,37.68c-3.18-0.49-6.41-0.49-9.6,0c-0.49,0.08-0.89,0.53-0.97,1.05c0.17-0.34,0.48-0.6,0.84-0.65
					c3.18-0.49,6.41-0.49,9.6,0c0.55,0.08,0.99,0.65,0.99,1.24c0,0.28,0,0.56,0,0.84c0,0.05-0.01,0.09-0.01,0.13
					c0.09-0.15,0.15-0.32,0.15-0.53c0-0.28,0-0.56,0-0.84C43.62,38.34,43.17,37.77,42.63,37.68z"/>
			</g>
		</g>
		<path class="st5" d="M50.38,49.3c0.02,0,1.38-0.5,1.45-0.52c1.08-0.38,7.68-3.26,7.68-3.26l3.7,1.22c0,0-3.07-0.4-5.71,0.4"/>
		<circle class="st4" cx="37.57" cy="44.82" r="1.06"/>
		<polyline class="st5" points="29.29,47.78 40.41,47.78 39.46,47.48 30.66,47.48 		"/>
		<g>
			<path class="st5" d="M39.75,46.32c1.8,0.08,3.52,0.39,5.15,0.91h0.44c-2.02-0.81-4.21-1.31-6.52-1.41
				c-2.92-0.13-5.71,0.4-8.25,1.41h2.3C35.03,46.55,37.35,46.22,39.75,46.32z"/>
			<path class="st5" d="M29.81,47.47c-5.48,2.48-9.47,7.6-10.18,13.76h6.17c-0.93-4.02,0.08-11.56,5.99-13.76H29.81z"/>
		</g>
		<path class="st2" d="M56.65,65.55H19.14c-0.98,0-1.78-0.8-1.78-1.78v-0.31c0-0.98,0.8-1.78,1.78-1.78h37.51
			c0.98,0,1.78,0.8,1.78,1.78v0.31C58.43,64.75,57.63,65.55,56.65,65.55z"/>
		<g>
			<path class="st1" d="M56.14,62.17H19.03c-0.4,0-0.76,0.14-1.05,0.36h38.37c0.58,0,1.09,0.29,1.41,0.73
				C57.49,62.62,56.87,62.17,56.14,62.17z"/>
		</g>
	</g>
</g>
</svg>
