<?xml version="1.0" encoding="utf-8"?>
<!-- Generator: Adobe Illustrator 26.0.2, SVG Export Plug-In . SVG Version: 6.00 Build 0)  -->
<svg version="1.1" id="Layer_3" xmlns="http://www.w3.org/2000/svg" xmlns:xlink="http://www.w3.org/1999/xlink" x="0px" y="0px"
	 viewBox="0 0 70 70" style="enable-background:new 0 0 70 70;" xml:space="preserve">
<style type="text/css">
	.st0{fill:#A2D7A2;}
	.st1{fill:#007F43;}
	.st2{fill:#00B34C;}
	.st3{fill:#FFFFFF;}
</style>
<g>
	<path class="st0" d="M67.1,67.67H2.96c-1.07,0-1.93-0.86-1.93-1.93l0,0c0-1.07,0.86-1.93,1.93-1.93H67.1
		c1.07,0,1.93,0.86,1.93,1.93l0,0C69.03,66.81,68.16,67.67,67.1,67.67z"/>
	<g>
		<path class="st1" d="M49.65,15.39c0,5.35-9.06,13.64-14.26,13.64s-14.26-8.29-14.26-13.64s3.82-7.9,14.26-7.9
			S49.65,10.04,49.65,15.39z"/>
		<g>
			<path class="st1" d="M45.92,64.72c-7.06-0.21-14.12-0.21-21.17,0c-0.86,0.03-1.61-0.7-1.67-1.63c-0.04-0.6-0.09-1.19-0.13-1.79
				c-0.07-0.92,0.6-1.7,1.48-1.73c7.27-0.22,14.54-0.22,21.81,0c0.89,0.03,1.55,0.8,1.48,1.73c-0.04,0.6-0.09,1.19-0.13,1.79
				C47.52,64.02,46.77,64.74,45.92,64.72z"/>
			<path class="st1" d="M46.02,64.1c-7.12-0.21-14.25-0.21-21.38,0c-0.83,0.02-1.55-0.73-1.62-1.7c0.01,0.21,0.03,0.41,0.04,0.62
				c0.07,0.96,0.79,1.72,1.62,1.7c7.1-0.21,14.2-0.21,21.3,0c0.82,0.02,1.55-0.73,1.62-1.7c0.01-0.21,0.03-0.41,0.04-0.62
				C47.57,63.36,46.84,64.12,46.02,64.1z"/>
			<g>
				<path class="st1" d="M24.63,63.52c0.18-0.01,0.35-0.01,0.53-0.02c-0.04-0.72-0.09-1.44-0.13-2.17
					c-0.18,0.01-0.36,0.01-0.54,0.02C24.54,62.08,24.58,62.8,24.63,63.52z"/>
				<path class="st1" d="M28.13,63.43c0.18,0,0.35-0.01,0.53-0.01c-0.03-0.72-0.06-1.44-0.08-2.17c-0.18,0-0.36,0.01-0.54,0.01
					C28.07,61.99,28.1,62.71,28.13,63.43z"/>
				<path class="st1" d="M31.63,63.38c0.18,0,0.35,0,0.53-0.01c-0.01-0.72-0.03-1.45-0.04-2.17c-0.18,0-0.36,0-0.54,0.01
					C31.6,61.93,31.62,62.66,31.63,63.38z"/>
				<path class="st1" d="M38.64,63.37c0.18,0,0.35,0,0.53,0.01c0.02-0.72,0.03-1.45,0.05-2.17c-0.18,0-0.36,0-0.54-0.01
					C38.67,61.93,38.66,62.65,38.64,63.37z"/>
				<path class="st1" d="M42.15,63.42c0.18,0,0.35,0.01,0.53,0.01c0.03-0.72,0.06-1.44,0.09-2.17c-0.18,0-0.36-0.01-0.54-0.01
					C42.21,61.98,42.18,62.7,42.15,63.42z"/>
				<path class="st1" d="M45.78,61.34c-0.04,0.72-0.09,1.44-0.13,2.17c0.18,0.01,0.35,0.01,0.53,0.02c0.05-0.72,0.09-1.44,0.14-2.17
					C46.14,61.35,45.96,61.35,45.78,61.34z"/>
				<path class="st1" d="M35.14,63.36c0.18,0,0.35,0,0.53,0c0-0.91,0-1.81,0.01-2.72c-0.18,0-0.36,0-0.54,0
					C35.14,61.55,35.14,62.45,35.14,63.36z"/>
			</g>
		</g>
		<g>
			<path class="st2" d="M36.09,24.89c0.01-2.82,0.02-5.64,0.03-8.47c-1.95,0-3.89,0.01-5.84,0.03c-3.42,0.93-6.8,1.9-10.14,2.91
				c-0.67,0.19-1.29,0.48-1.85,0.83c0.65,1.45,1.5,3.78,1.9,6.57c4.74-0.17,9.48-0.25,14.22-0.26
				C35.33,26.5,36.08,25.78,36.09,24.89z"/>
			<path class="st2" d="M20.42,29.99c0,1.75-0.21,3.59-0.74,5.44c4.89-0.18,9.78-0.28,14.67-0.29c0.93,0,1.69-0.76,1.7-1.69
				c0.01-1.78,0.01-3.56,0.02-5.34c0-0.89-0.74-1.61-1.67-1.6c-4.74,0.01-9.48,0.1-14.22,0.26C20.33,27.79,20.42,28.87,20.42,29.99"
				/>
			<path class="st2" d="M22.92,52.61c3.85-0.13,7.69-0.19,11.54-0.2c0.84,0,1.53-0.75,1.53-1.67c0.01-1.77,0.01-3.53,0.02-5.3
				c0-0.92-0.71-1.67-1.59-1.67c-3.99,0.01-7.98,0.08-11.97,0.21c-1.21,0.04-2.1,1.09-2,2.35c0.11,1.4,0.22,2.8,0.33,4.2
				C20.88,51.72,21.83,52.64,22.92,52.61z"/>
			<path class="st2" d="M20.18,26.76c-0.4-2.79-1.25-5.12-1.9-6.57c-0.62,0.38-1.17,0.85-1.63,1.39c-0.5,0.6-1,1.19-1.49,1.79
				c-0.26,0.32-0.29,0.75-0.08,1.12c1.08,1.9,2.83,4.26,5.34,5.49C20.42,28.87,20.33,27.79,20.18,26.76"/>
			<path class="st2" d="M24.68,62.04c2.76-0.08,5.53-0.13,8.29-0.15c1.64-0.01,2.98-1.55,2.99-3.45c0.01-1.46,0.01-2.91,0.02-4.37
				c0-0.92-0.68-1.67-1.52-1.67c-3.85,0.01-7.69,0.08-11.54,0.2c-1.09,0.04-1.89,1.03-1.8,2.22c0.1,1.29,0.2,2.59,0.31,3.88
				C21.58,60.6,23.04,62.08,24.68,62.04z"/>
			<path class="st2" d="M19.69,35.43c0.52-1.85,0.74-3.69,0.74-5.44c-2.36-1.15-4.04-3.3-5.13-5.13c-0.27-0.45-0.92-0.52-1.24-0.12
				c-1.03,1.26-2.03,2.53-3.02,3.8c-0.26,0.33-0.3,0.77-0.11,1.16c1.07,2.14,3.27,5.67,6.73,6.93c0.4,0.15,0.84,0.06,1.14-0.23
				c0.27-0.26,0.54-0.52,0.81-0.78c0,0.02,0,0.04,0.01,0.07C19.64,35.6,19.66,35.51,19.69,35.43"/>
			<path class="st2" d="M10.1,29.74c-1.04,1.36-2.06,2.72-3.05,4.09c-0.32,0.44-0.35,1.03-0.07,1.54c1.16,2.06,3.18,4.88,6.08,6.06
				c0.32,0.13,0.68,0.04,0.91-0.2c1.23-1.27,2.49-2.54,3.77-3.8c0.27-0.26,0.15-0.73-0.21-0.87c-3.3-1.27-5.42-4.59-6.51-6.72
				C10.83,29.5,10.33,29.44,10.1,29.74z"/>
			<path class="st2" d="M19.72,37.07c0.12,1.57,0.25,3.14,0.37,4.72c0.1,1.25,1.16,2.23,2.36,2.2c3.99-0.13,7.98-0.2,11.97-0.21
				c0.88,0,1.6-0.75,1.6-1.67c0.01-1.76,0.01-3.52,0.02-5.28c0-0.93-0.75-1.69-1.68-1.69c-4.89,0.01-9.78,0.11-14.67,0.29
				c-0.03,0.04-0.05,0.06-0.09,0.1C19.64,36.04,19.68,36.55,19.72,37.07"/>
			<g>
				<path class="st1" d="M35.14,16.43c0,2.47,0,4.93,0.01,7.4c0,0.89-0.75,1.6-1.68,1.61c-4.49,0.02-8.97,0.11-13.46,0.27
					c0.07,0.35,0.13,0.7,0.18,1.06c4.74-0.17,9.48-0.25,14.22-0.26c0.92,0,1.68-0.72,1.68-1.61c0.01-2.82,0.02-5.64,0.03-8.47
					C35.79,16.43,35.47,16.43,35.14,16.43z"/>
			</g>
			<g>
				<path class="st1" d="M35.09,26.64c0.03,0.13,0.06,0.26,0.06,0.4c0,1.78,0,3.56,0,5.34c0,0.93-0.76,1.69-1.7,1.69
					c-4.5,0.02-9.01,0.11-13.51,0.28c-0.08,0.36-0.16,0.72-0.26,1.08c4.89-0.18,9.78-0.28,14.67-0.29c0.93,0,1.69-0.76,1.7-1.69
					c0.01-1.78,0.01-3.56,0.02-5.34C36.08,27.45,35.67,26.89,35.09,26.64z"/>
			</g>
			<g>
				<path class="st1" d="M35.1,43.93c0.04,0.14,0.06,0.29,0.06,0.44c0,1.77,0,3.53,0,5.3c0,0.92-0.69,1.67-1.53,1.67
					c-3.87,0.02-7.74,0.09-11.61,0.23c-0.37,0.01-0.73-0.09-1.04-0.28c0.35,0.79,1.1,1.34,1.94,1.31c3.85-0.13,7.69-0.19,11.54-0.2
					c0.84,0,1.53-0.75,1.53-1.67c0.01-1.77,0.01-3.53,0.02-5.3C36.01,44.77,35.64,44.2,35.1,43.93z"/>
			</g>
			<g>
				<path class="st1" d="M35.11,52.57c0.04,0.14,0.06,0.29,0.06,0.44c0,1.46,0,2.91,0,4.37c0,1.9-1.35,3.44-3,3.45
					c-2.78,0.02-5.56,0.08-8.34,0.17c-0.7,0.02-1.36-0.24-1.9-0.68c0.59,1.05,1.62,1.76,2.75,1.72c2.76-0.08,5.53-0.13,8.29-0.15
					c1.64-0.01,2.98-1.55,2.99-3.45c0.01-1.46,0.01-2.91,0.02-4.37C35.98,53.41,35.62,52.83,35.11,52.57z"/>
			</g>
			<g>
				<path class="st1" d="M35.08,35.3c0.04,0.15,0.07,0.3,0.07,0.46c0,1.76,0,3.52,0,5.28c0,0.92-0.72,1.67-1.61,1.67
					c-4.01,0.02-8.02,0.1-12.03,0.24c-0.43,0.01-0.84-0.1-1.19-0.31c0.39,0.82,1.21,1.38,2.13,1.35c3.99-0.13,7.98-0.2,11.97-0.21
					c0.88,0,1.6-0.75,1.6-1.67c0.01-1.76,0.01-3.52,0.02-5.28C36.04,36.15,35.65,35.57,35.08,35.3z"/>
			</g>
			<path class="st2" d="M5.91,47.76c1.23,2.22,2.43,4.45,3.6,6.69c0.28,0.54,0.82,0.88,1.37,0.84c1.52-0.11,3.91-0.68,5.3-1.69
				c0.27-0.2,0.37-0.59,0.26-0.95c-0.59-1.93-1.19-3.85-1.8-5.78c-0.16-0.52-0.72-0.78-1.18-0.56c-2.03,0.96-5.12,1.01-7.04,0.64
				C5.97,46.86,5.67,47.34,5.91,47.76z"/>
			<path class="st2" d="M7.23,35.8c-0.34-0.57-1.14-0.65-1.5-0.14c-0.39,0.55-0.78,1.11-1.17,1.66c-1.25,1.71-1.33,4.05-0.29,6.06
				c0.46,0.8,0.17,1.76,0.62,2.56c0.27,0.48,0.73,0.83,1.24,0.94c2.05,0.43,5.38,0.44,7.56-0.7c0.36-0.19,0.53-0.61,0.39-1.03
				c-0.33-1.01-0.65-2.02-0.99-3.03c0.16-0.17,0.32-0.33,0.48-0.5C10.6,40.66,8.5,37.94,7.23,35.8z"/>
			<path class="st2" d="M20.18,26.76c-0.4-2.79-1.25-5.12-1.9-6.57c-0.62,0.38-1.17,0.85-1.63,1.39c-0.5,0.6-1,1.19-1.49,1.79
				c-0.26,0.32-0.29,0.75-0.08,1.12c1.08,1.9,2.83,4.26,5.34,5.49C20.42,28.87,20.33,27.79,20.18,26.76"/>
			<path class="st2" d="M19.69,35.43c0.52-1.85,0.74-3.69,0.74-5.44c-2.36-1.15-4.04-3.3-5.13-5.13c-0.27-0.45-0.92-0.52-1.24-0.12
				c-1.03,1.26-2.03,2.53-3.02,3.8c-0.26,0.33-0.3,0.77-0.11,1.16c1.07,2.14,3.27,5.67,6.73,6.93c0.4,0.15,0.84,0.06,1.14-0.23
				c0.27-0.26,0.54-0.52,0.81-0.78c0,0.02,0,0.04,0.01,0.07C19.64,35.6,19.66,35.51,19.69,35.43"/>
			<path class="st1" d="M10.48,56.33c1.13,2.19,1.88,3.59,2.94,5.8c3.56,0.5,4.99-1.98,4.99-1.98s-0.73-3.39-1.44-5.74
				c-0.17-0.56-0.77-0.81-1.22-0.53c-1.27,0.79-3.44,1.29-4.79,1.4C10.49,55.32,10.24,55.86,10.48,56.33z"/>
			<path class="st2" d="M10.1,29.74c-1.04,1.36-2.06,2.72-3.05,4.09c-0.32,0.44-0.35,1.03-0.07,1.54c1.16,2.06,3.18,4.88,6.08,6.06
				c0.32,0.13,0.68,0.04,0.91-0.2c1.23-1.27,2.49-2.54,3.77-3.8c0.27-0.26,0.15-0.73-0.21-0.87c-3.3-1.27-5.42-4.59-6.51-6.72
				C10.83,29.5,10.33,29.44,10.1,29.74z"/>
			<path class="st2" d="M5.91,47.76c1.23,2.22,2.43,4.45,3.6,6.69c0.28,0.54,0.82,0.88,1.37,0.84c1.52-0.11,3.91-0.68,5.3-1.69
				c0.27-0.2,0.37-0.59,0.26-0.95c-0.59-1.93-1.19-3.85-1.8-5.78c-0.16-0.52-0.72-0.78-1.18-0.56c-2.03,0.96-5.12,1.01-7.04,0.64
				C5.97,46.86,5.67,47.34,5.91,47.76z"/>
			<path class="st2" d="M7.23,35.8c-0.34-0.57-1.14-0.65-1.5-0.14c-0.39,0.55-0.78,1.11-1.17,1.66c-0.76,1.04-1.11,2.28-1.11,3.57
				c-0.01,1.82,0.58,3.51,1.45,5.05c0.27,0.48,0.73,0.83,1.24,0.94c2.05,0.43,5.38,0.44,7.56-0.7c0.36-0.19,0.53-0.61,0.39-1.03
				c-0.33-1.01-0.65-2.02-0.99-3.03c0.16-0.17,0.32-0.33,0.48-0.5C10.6,40.66,8.5,37.94,7.23,35.8z"/>
			<g>
				<path class="st1" d="M20.18,26.76c-0.4-2.79-1.25-5.12-1.9-6.57c-0.35,0.22-0.67,0.46-0.97,0.73c0.51,1.36,1.02,3.08,1.32,5.03
					c0.15,0.98,0.24,2.01,0.25,3.08c0.48,0.36,0.98,0.69,1.53,0.96C20.42,28.87,20.33,27.79,20.18,26.76z"/>
			</g>
			<g>
				<path class="st1" d="M15.29,24.86c-0.25-0.43-0.85-0.5-1.19-0.17c1.11,1.67,2.68,3.48,4.79,4.49c0.01,1.75-0.19,3.59-0.7,5.44
					c-0.02,0.08-0.05,0.17-0.07,0.25c0-0.02,0-0.04-0.01-0.07c-0.27,0.26-0.54,0.52-0.81,0.78c-0.3,0.29-0.74,0.38-1.15,0.23
					c-0.12-0.04-0.24-0.1-0.35-0.14c0.57,0.38,1.18,0.7,1.84,0.94c0.4,0.15,0.84,0.06,1.14-0.23c0.27-0.26,0.54-0.52,0.81-0.78
					c0,0.02,0,0.04,0.01,0.07c0.02-0.08,0.05-0.17,0.07-0.25c0.52-1.85,0.74-3.69,0.74-5.44C18.07,28.84,16.38,26.69,15.29,24.86z"
					/>
			</g>
			<g>
				<path class="st1" d="M15.82,35.68c-2.34-1.56-3.92-4.09-4.8-5.83c-0.18-0.35-0.68-0.41-0.91-0.11
					c-0.06,0.07-0.11,0.15-0.17,0.22C11.11,31.98,13.05,34.54,15.82,35.68z"/>
				<g>
					<path class="st1" d="M17.52,36.57c-0.44-0.17-0.85-0.37-1.24-0.6c0.15,0.2,0.16,0.48-0.03,0.67c-1.28,1.27-2.53,2.54-3.76,3.81
						c-0.22,0.23-0.55,0.31-0.87,0.21c0.45,0.29,0.93,0.57,1.44,0.77c0.32,0.13,0.68,0.04,0.91-0.2c1.23-1.27,2.49-2.54,3.77-3.8
						C18,37.17,17.89,36.71,17.52,36.57z"/>
				</g>
			</g>
			<g>
				<path class="st1" d="M16.44,52.64c-0.59-1.93-1.19-3.85-1.8-5.78c-0.16-0.52-0.72-0.78-1.18-0.56
					c-0.05,0.03-0.11,0.04-0.16,0.07c0.32,0.98,0.64,1.97,0.95,2.96c0.28,0.89,0.42,1.62,0.25,2.56c-0.05,0.26-0.1,0.51-0.22,0.74
					c-0.42,0.84-1.35,1.14-2.19,1.39c-0.83,0.24-1.69,0.42-2.55,0.49c0.29,0.51,0.81,0.82,1.33,0.78c1.52-0.11,3.91-0.68,5.3-1.69
					C16.45,53.39,16.55,53,16.44,52.64z"/>
			</g>
			<g>
				<path class="st1" d="M11.49,40.59c-1.89-1.27-3.31-3.19-4.26-4.78c-0.28-0.47-0.88-0.6-1.28-0.34
					C7.16,37.36,9,39.55,11.49,40.59z"/>
				<g>
					<path class="st1" d="M14.09,45.16c-0.33-1.01-0.65-2.02-0.99-3.03c0.16-0.17,0.32-0.33,0.48-0.5
						c-0.55-0.18-1.06-0.43-1.55-0.71c-0.14,0.14-0.27,0.29-0.41,0.43c0.32,0.94,0.27,1.51,0.08,2.49
						c-0.22,1.17-0.86,2.34-2.09,2.44c-1.52,0.12-3.04,0.21-4.55-0.07c0.27,0.35,0.65,0.6,1.06,0.69c2.05,0.43,5.38,0.44,7.56-0.7
						C14.05,46,14.23,45.57,14.09,45.16z"/>
				</g>
			</g>
		</g>
		<g>
			<path class="st2" d="M34.57,24.89c-0.01-2.82-0.02-5.64-0.03-8.47c1.95,0,3.89,0.01,5.84,0.03c3.42,0.93,6.8,1.9,10.14,2.91
				c0.67,0.19,1.29,0.48,1.85,0.83c-0.65,1.45-1.5,3.78-1.9,6.57c-4.74-0.17-9.48-0.25-14.22-0.26
				C35.33,26.5,34.58,25.78,34.57,24.89z"/>
			<path class="st2" d="M50.23,29.99c0,1.75,0.21,3.59,0.74,5.44c-4.89-0.18-9.78-0.28-14.67-0.29c-0.93,0-1.69-0.76-1.7-1.69
				c-0.01-1.78-0.01-3.56-0.02-5.34c0-0.89,0.74-1.61,1.67-1.6c4.74,0.01,9.48,0.1,14.22,0.26C50.32,27.79,50.23,28.87,50.23,29.99"
				/>
			<path class="st2" d="M47.74,52.61c-3.85-0.13-7.69-0.19-11.54-0.2c-0.84,0-1.53-0.75-1.53-1.67c-0.01-1.77-0.01-3.53-0.02-5.3
				c0-0.92,0.71-1.67,1.59-1.67c3.99,0.01,7.98,0.08,11.97,0.21c1.21,0.04,2.1,1.09,2,2.35c-0.11,1.4-0.22,2.8-0.33,4.2
				C49.78,51.72,48.82,52.64,47.74,52.61z"/>
			<path class="st2" d="M50.47,26.76c0.4-2.79,1.25-5.12,1.9-6.57c0.62,0.38,1.17,0.85,1.63,1.39c0.5,0.6,1,1.19,1.49,1.79
				c0.26,0.32,0.29,0.75,0.08,1.12c-1.08,1.9-2.83,4.26-5.34,5.49C50.23,28.87,50.32,27.79,50.47,26.76"/>
			<path class="st2" d="M45.98,62.04c-2.76-0.08-5.53-0.13-8.29-0.15c-1.64-0.01-2.98-1.55-2.99-3.45
				c-0.01-1.46-0.01-2.91-0.02-4.37c0-0.92,0.68-1.67,1.52-1.67c3.85,0.01,7.69,0.08,11.54,0.2c1.09,0.04,1.89,1.03,1.8,2.22
				c-0.1,1.29-0.2,2.59-0.31,3.88C49.07,60.6,47.62,62.08,45.98,62.04z"/>
			<path class="st2" d="M50.97,35.43c-0.52-1.85-0.74-3.69-0.74-5.44c2.36-1.15,4.04-3.3,5.13-5.13c0.27-0.45,0.92-0.52,1.24-0.12
				c1.03,1.26,2.03,2.53,3.02,3.8c0.26,0.33,0.3,0.77,0.11,1.16c-1.07,2.14-3.27,5.67-6.73,6.93c-0.4,0.15-0.84,0.06-1.14-0.23
				c-0.27-0.26-0.54-0.52-0.81-0.78c0,0.02,0,0.04-0.01,0.07C51.02,35.6,50.99,35.51,50.97,35.43"/>
			<path class="st2" d="M60.55,29.74c1.04,1.36,2.06,2.72,3.05,4.09c0.32,0.44,0.35,1.03,0.07,1.54c-1.16,2.06-3.18,4.88-6.08,6.06
				c-0.32,0.13-0.68,0.04-0.91-0.2c-1.23-1.27-2.49-2.54-3.77-3.8c-0.27-0.26-0.15-0.73,0.21-0.87c3.3-1.27,5.42-4.59,6.51-6.72
				C59.82,29.5,60.32,29.44,60.55,29.74z"/>
			<path class="st2" d="M50.93,37.07c-0.12,1.57-0.25,3.14-0.37,4.72c-0.1,1.25-1.16,2.23-2.36,2.2c-3.99-0.13-7.98-0.2-11.97-0.21
				c-0.88,0-1.6-0.75-1.6-1.67c-0.01-1.76-0.01-3.52-0.02-5.28c0-0.93,0.75-1.69,1.68-1.69c4.89,0.01,9.78,0.11,14.67,0.29
				c0.03,0.04,0.05,0.06,0.09,0.1C51.01,36.04,50.97,36.55,50.93,37.07"/>
			<g>
				<path class="st1" d="M35.52,16.43c0,2.47,0,4.93-0.01,7.4c0,0.89,0.75,1.6,1.68,1.61c4.49,0.02,8.97,0.11,13.46,0.27
					c-0.07,0.35-0.13,0.7-0.18,1.06c-4.74-0.17-9.48-0.25-14.22-0.26c-0.92,0-1.68-0.72-1.68-1.61c-0.01-2.82-0.02-5.64-0.03-8.47
					C34.87,16.43,35.19,16.43,35.52,16.43z"/>
			</g>
			<g>
				<path class="st1" d="M35.57,26.64c-0.03,0.13-0.06,0.26-0.06,0.4c0,1.78,0,3.56,0,5.34c0,0.93,0.76,1.69,1.7,1.69
					c4.5,0.02,9.01,0.11,13.51,0.28c0.08,0.36,0.16,0.72,0.26,1.08c-4.89-0.18-9.78-0.28-14.67-0.29c-0.93,0-1.69-0.76-1.7-1.69
					c-0.01-1.78-0.01-3.56-0.02-5.34C34.58,27.45,34.98,26.89,35.57,26.64z"/>
			</g>
			<g>
				<path class="st1" d="M35.56,43.93c-0.04,0.14-0.06,0.29-0.06,0.44c0,1.77,0,3.53,0,5.3c0,0.92,0.69,1.67,1.53,1.67
					c3.87,0.02,7.74,0.09,11.61,0.23c0.37,0.01,0.73-0.09,1.04-0.28c-0.35,0.79-1.1,1.34-1.94,1.31c-3.85-0.13-7.69-0.19-11.54-0.2
					c-0.84,0-1.53-0.75-1.53-1.67c-0.01-1.77-0.01-3.53-0.02-5.3C34.64,44.77,35.02,44.2,35.56,43.93z"/>
			</g>
			<g>
				<path class="st1" d="M35.55,52.57c-0.04,0.14-0.06,0.29-0.06,0.44c0,1.46,0,2.91,0,4.37c0,1.9,1.35,3.44,3,3.45
					c2.78,0.02,5.56,0.08,8.34,0.17c0.7,0.02,1.36-0.24,1.9-0.68c-0.59,1.05-1.62,1.76-2.75,1.72c-2.76-0.08-5.53-0.13-8.29-0.15
					c-1.64-0.01-2.98-1.55-2.99-3.45c-0.01-1.46-0.01-2.91-0.02-4.37C34.68,53.41,35.03,52.83,35.55,52.57z"/>
			</g>
			<g>
				<path class="st1" d="M35.57,35.3c-0.04,0.15-0.07,0.3-0.07,0.46c0,1.76,0,3.52,0,5.28c0,0.92,0.72,1.67,1.61,1.67
					c4.01,0.02,8.02,0.1,12.03,0.24c0.43,0.01,0.84-0.1,1.19-0.31c-0.39,0.82-1.21,1.38-2.13,1.35c-3.99-0.13-7.98-0.2-11.97-0.21
					c-0.88,0-1.6-0.75-1.6-1.67c-0.01-1.76-0.01-3.52-0.02-5.28C34.61,36.15,35,35.57,35.57,35.3z"/>
			</g>
			<path class="st2" d="M64.75,47.76c-1.23,2.22-2.43,4.45-3.6,6.69c-0.28,0.54-0.82,0.88-1.37,0.84c-1.52-0.11-3.91-0.68-5.3-1.69
				c-0.27-0.2-0.37-0.59-0.26-0.95c0.59-1.93,1.19-3.85,1.8-5.78c0.16-0.52,0.72-0.78,1.18-0.56c2.03,0.96,5.12,1.01,7.04,0.64
				C64.68,46.86,64.98,47.34,64.75,47.76z"/>
			<path class="st2" d="M63.43,35.8c0.34-0.57,1.14-0.65,1.5-0.14c0.39,0.55,0.78,1.11,1.17,1.66c1.25,1.71,1.33,4.05,0.29,6.06
				c-0.46,0.8-0.17,1.76-0.62,2.56c-0.27,0.48-0.73,0.83-1.24,0.94c-2.05,0.43-5.38,0.44-7.56-0.7c-0.36-0.19-0.53-0.61-0.39-1.03
				c0.33-1.01,0.65-2.02,0.99-3.03c-0.16-0.17-0.32-0.33-0.48-0.5C60.05,40.66,62.16,37.94,63.43,35.8z"/>
			<path class="st2" d="M50.47,26.76c0.4-2.79,1.25-5.12,1.9-6.57c0.62,0.38,1.17,0.85,1.63,1.39c0.5,0.6,1,1.19,1.49,1.79
				c0.26,0.32,0.29,0.75,0.08,1.12c-1.08,1.9-2.83,4.26-5.34,5.49C50.23,28.87,50.32,27.79,50.47,26.76"/>
			<path class="st2" d="M50.97,35.43c-0.52-1.85-0.74-3.69-0.74-5.44c2.36-1.15,4.04-3.3,5.13-5.13c0.27-0.45,0.92-0.52,1.24-0.12
				c1.03,1.26,2.03,2.53,3.02,3.8c0.26,0.33,0.3,0.77,0.11,1.16c-1.07,2.14-3.27,5.67-6.73,6.93c-0.4,0.15-0.84,0.06-1.14-0.23
				c-0.27-0.26-0.54-0.52-0.81-0.78c0,0.02,0,0.04-0.01,0.07C51.02,35.6,50.99,35.51,50.97,35.43"/>
			<path class="st1" d="M60.17,56.33c-1.13,2.19-1.88,3.59-2.94,5.8c-3.56,0.5-4.99-1.98-4.99-1.98s0.73-3.39,1.44-5.74
				c0.17-0.56,0.77-0.81,1.22-0.53c1.27,0.79,3.44,1.29,4.79,1.4C60.17,55.32,60.42,55.86,60.17,56.33z"/>
			<path class="st2" d="M60.55,29.74c1.04,1.36,2.06,2.72,3.05,4.09c0.32,0.44,0.35,1.03,0.07,1.54c-1.16,2.06-3.18,4.88-6.08,6.06
				c-0.32,0.13-0.68,0.04-0.91-0.2c-1.23-1.27-2.49-2.54-3.77-3.8c-0.27-0.26-0.15-0.73,0.21-0.87c3.3-1.27,5.42-4.59,6.51-6.72
				C59.82,29.5,60.32,29.44,60.55,29.74z"/>
			<path class="st2" d="M64.75,47.76c-1.23,2.22-2.43,4.45-3.6,6.69c-0.28,0.54-0.82,0.88-1.37,0.84c-1.52-0.11-3.91-0.68-5.3-1.69
				c-0.27-0.2-0.37-0.59-0.26-0.95c0.59-1.93,1.19-3.85,1.8-5.78c0.16-0.52,0.72-0.78,1.18-0.56c2.03,0.96,5.12,1.01,7.04,0.64
				C64.68,46.86,64.98,47.34,64.75,47.76z"/>
			<path class="st2" d="M63.43,35.8c0.34-0.57,1.14-0.65,1.5-0.14c0.39,0.55,0.78,1.11,1.17,1.66c0.76,1.04,1.11,2.28,1.11,3.57
				c0.01,1.82-0.58,3.51-1.45,5.05c-0.27,0.48-0.73,0.83-1.24,0.94c-2.05,0.43-5.38,0.44-7.56-0.7c-0.36-0.19-0.53-0.61-0.39-1.03
				c0.33-1.01,0.65-2.02,0.99-3.03c-0.16-0.17-0.32-0.33-0.48-0.5C60.05,40.66,62.16,37.94,63.43,35.8z"/>
			<g>
				<path class="st1" d="M50.47,26.76c0.4-2.79,1.25-5.12,1.9-6.57c0.35,0.22,0.67,0.46,0.97,0.73c-0.51,1.36-1.02,3.08-1.32,5.03
					c-0.15,0.98-0.24,2.01-0.25,3.08c-0.48,0.36-0.98,0.69-1.53,0.96C50.23,28.87,50.32,27.79,50.47,26.76z"/>
			</g>
			<g>
				<path class="st1" d="M55.36,24.86c0.25-0.43,0.85-0.5,1.19-0.17c-1.11,1.67-2.68,3.48-4.79,4.49c-0.01,1.75,0.19,3.59,0.7,5.44
					c0.02,0.08,0.05,0.17,0.07,0.25c0-0.02,0-0.04,0.01-0.07c0.27,0.26,0.54,0.52,0.81,0.78c0.3,0.29,0.74,0.38,1.15,0.23
					c0.12-0.04,0.24-0.1,0.35-0.14c-0.57,0.38-1.18,0.7-1.84,0.94c-0.4,0.15-0.84,0.06-1.14-0.23c-0.27-0.26-0.54-0.52-0.81-0.78
					c0,0.02,0,0.04-0.01,0.07c-0.02-0.08-0.05-0.17-0.07-0.25c-0.52-1.85-0.74-3.69-0.74-5.44C52.59,28.84,54.27,26.69,55.36,24.86z
					"/>
			</g>
			<g>
				<path class="st1" d="M54.84,35.68c2.34-1.56,3.92-4.09,4.8-5.83c0.18-0.35,0.68-0.41,0.91-0.11c0.06,0.07,0.11,0.15,0.17,0.22
					C59.55,31.98,57.61,34.54,54.84,35.68z"/>
				<g>
					<path class="st1" d="M53.14,36.57c0.44-0.17,0.85-0.37,1.24-0.6c-0.15,0.2-0.16,0.48,0.03,0.67c1.28,1.27,2.53,2.54,3.76,3.81
						c0.22,0.23,0.55,0.31,0.87,0.21c-0.45,0.29-0.93,0.57-1.44,0.77c-0.32,0.13-0.68,0.04-0.91-0.2c-1.23-1.27-2.49-2.54-3.77-3.8
						C52.65,37.17,52.77,36.71,53.14,36.57z"/>
				</g>
			</g>
			<g>
				<path class="st1" d="M54.22,52.64c0.59-1.93,1.19-3.85,1.8-5.78c0.16-0.52,0.72-0.78,1.18-0.56c0.05,0.03,0.11,0.04,0.16,0.07
					c-0.32,0.98-0.64,1.97-0.95,2.96c-0.28,0.89-0.42,1.62-0.25,2.56c0.05,0.26,0.1,0.51,0.22,0.74c0.42,0.84,1.35,1.14,2.19,1.39
					c0.83,0.24,1.69,0.42,2.55,0.49c-0.29,0.51-0.81,0.82-1.33,0.78c-1.52-0.11-3.91-0.68-5.3-1.69
					C54.21,53.39,54.11,53,54.22,52.64z"/>
			</g>
			<g>
				<path class="st1" d="M59.17,40.59c1.89-1.27,3.31-3.19,4.26-4.78c0.28-0.47,0.88-0.6,1.28-0.34
					C63.5,37.36,61.66,39.55,59.17,40.59z"/>
				<g>
					<path class="st1" d="M56.56,45.16c0.33-1.01,0.65-2.02,0.99-3.03c-0.16-0.17-0.32-0.33-0.48-0.5c0.55-0.18,1.06-0.43,1.55-0.71
						c0.14,0.14,0.27,0.29,0.41,0.43c-0.32,0.94-0.27,1.51-0.08,2.49c0.22,1.17,0.86,2.34,2.09,2.44c1.52,0.12,3.04,0.21,4.55-0.07
						c-0.27,0.35-0.65,0.6-1.06,0.69c-2.05,0.43-5.38,0.44-7.56-0.7C56.6,46,56.43,45.57,56.56,45.16z"/>
				</g>
			</g>
		</g>
		<g>
			<g>
				<g>
					<path class="st1" d="M43.06,18.55c0,0.01-1.29,3.22-7.81,3.2c-6.53,0.02-7.64-3.19-7.64-3.2c-0.05-1.41-0.1-2.82-0.15-4.22
						c-0.03-0.81,0.68-1.48,1.58-1.49c4.2-0.06,8.41-0.06,12.61,0c0.9,0.01,1.61,0.68,1.58,1.49
						C43.16,15.73,43.11,17.14,43.06,18.55z"/>
				</g>
				<path class="st2" d="M43.1,17.47c0,0.01-1.3,3.22-7.85,3.2c-6.56,0.02-7.68-3.19-7.68-3.2c-0.05-1.41-0.1-2.82-0.15-4.22
					c-0.03-0.81,0.68-1.48,1.58-1.49c4.22-0.06,8.45-0.06,12.67,0c0.9,0.01,1.61,0.68,1.58,1.49C43.2,14.66,43.15,16.06,43.1,17.47z
					"/>
				<g>
					<path class="st1" d="M41.87,11.98c-0.02,0.53-2.94,0.92-6.53,0.92c-3.59,0-6.51-0.39-6.53-0.92c-0.02-0.53,2.92-0.3,6.53-0.3
						C38.95,11.68,41.88,11.45,41.87,11.98z"/>
				</g>
				<path class="st1" d="M36.86,12.77c-0.8,0.27-1.59,0.54-2.38,0.81c0.01,2.13,0.02,4.27,0.02,6.4c0.32,0.13,0.63,0.26,0.95,0.39
					c0-2.13,0-4.26,0-6.39c1.35-0.54,2.7-1.07,4.07-1.6"/>
			</g>
			<path class="st1" d="M36.88,60.99c-1.03,0-2.07,0-3.1,0c-0.12-13.33-0.24-26.67-0.36-40c1.27-0.01,2.54-0.01,3.81,0
				C37.12,34.33,37,47.66,36.88,60.99z"/>
			<path class="st2" d="M35.33,59.81C35.33,59.81,35.33,59.81,35.33,59.81c-0.31,0-0.57-0.27-0.57-0.59
				c-0.04-12.15-0.08-24.29-0.12-36.44c0-0.33,0.31-0.6,0.69-0.6c0,0,0,0,0,0c0.38,0,0.69,0.27,0.69,0.6
				c-0.04,12.15-0.08,24.29-0.12,36.44C35.9,59.54,35.64,59.81,35.33,59.81z"/>
		</g>
		<g>
			<g>
				<g>
					<path class="st1" d="M24.08,57.1C24.08,57.1,24.08,57.1,24.08,57.1c-0.4,0.03-0.81-0.29-0.92-0.72
						c-0.74-2.9-1.48-5.79-2.22-8.69c-0.11-0.43,0.2-0.81,0.69-0.84c0,0,0,0,0,0c0.49-0.04,0.96,0.28,1.06,0.71
						c0.65,2.9,1.3,5.8,1.95,8.71C24.72,56.7,24.47,57.07,24.08,57.1z"/>
				</g>
				<path class="st2" d="M23.54,55.65L23.54,55.65c-0.1,0.01-0.19-0.07-0.22-0.17c-0.57-2.32-1.15-4.64-1.72-6.96
					c-0.02-0.1,0.05-0.19,0.16-0.2l0,0c0.11-0.01,0.22,0.07,0.24,0.17c0.56,2.32,1.11,4.64,1.67,6.96
					C23.69,55.55,23.63,55.64,23.54,55.65z"/>
			</g>
			<g>
				<g>
					<path class="st1" d="M45.98,57.1C45.98,57.1,45.98,57.1,45.98,57.1c0.4,0.03,0.81-0.29,0.92-0.72c0.74-2.9,1.48-5.79,2.22-8.69
						c0.11-0.43-0.2-0.81-0.69-0.84c0,0,0,0,0,0c-0.49-0.04-0.96,0.28-1.06,0.71c-0.65,2.9-1.3,5.8-1.95,8.71
						C45.33,56.7,45.58,57.07,45.98,57.1z"/>
				</g>
				<path class="st2" d="M46.52,55.65C46.52,55.65,46.52,55.65,46.52,55.65c0.1,0.01,0.19-0.07,0.22-0.17
					c0.57-2.32,1.15-4.64,1.72-6.96c0.02-0.1-0.04-0.19-0.16-0.2c0,0,0,0,0,0c-0.11-0.01-0.22,0.07-0.24,0.17
					c-0.56,2.32-1.11,4.64-1.67,6.96C46.37,55.55,46.42,55.64,46.52,55.65z"/>
			</g>
		</g>
		<g>
			<path class="st1" d="M25.01,14.06c-0.24-3.27,1.07-4.72,3.87-5.79c-5.22,1.05-7.42,3.28-7.1,7.75c0.13,1.8,5.13,5.51,12.06,5.78
				C30.05,18.94,25.11,15.44,25.01,14.06z"/>
			<path class="st2" d="M24.81,13.98c-0.24-2.93,1.69-4.95,4.49-5.91c-5.22,0.94-7.4,3.37-7.07,7.38c0.13,1.62,6.09,5.23,10.74,6.12
				C29.17,19,24.91,15.22,24.81,13.98z"/>
		</g>
		<g>
			<ellipse class="st1" cx="28.26" cy="19.1" rx="0.7" ry="0.68"/>
			<path class="st3" d="M28.25,38.9L28.25,38.9c-0.15,0-0.26-0.12-0.26-0.26V19.12c0-0.15,0.12-0.26,0.26-0.26l0,0
				c0.15,0,0.26,0.12,0.26,0.26v19.51C28.52,38.78,28.4,38.9,28.25,38.9z"/>
		</g>
		<g>
			<path class="st1" d="M45.77,14.06C46,10.79,44.7,9.34,41.9,8.27c5.22,1.05,7.42,3.28,7.1,7.75c-0.13,1.8-5.13,5.51-12.06,5.78
				C40.73,18.94,45.67,15.44,45.77,14.06z"/>
			<path class="st2" d="M45.97,13.98c0.24-2.93-1.69-4.95-4.49-5.91c5.22,0.94,7.4,3.37,7.07,7.38c-0.13,1.62-6.09,5.23-10.74,6.12
				C41.61,19,45.87,15.22,45.97,13.98z"/>
		</g>
		<g>
			<ellipse class="st1" cx="42.51" cy="19.1" rx="0.7" ry="0.68"/>
			<path class="st3" d="M42.52,38.9L42.52,38.9c0.15,0,0.26-0.12,0.26-0.26V19.12c0-0.15-0.12-0.26-0.26-0.26l0,0
				c-0.15,0-0.26,0.12-0.26,0.26v19.51C42.26,38.78,42.38,38.9,42.52,38.9z"/>
		</g>
	</g>
</g>
</svg>
