<?xml version="1.0" encoding="utf-8"?>
<!-- Generator: Adobe Illustrator 26.0.2, SVG Export Plug-In . SVG Version: 6.00 Build 0)  -->
<svg version="1.1" id="Layer_2" xmlns="http://www.w3.org/2000/svg" xmlns:xlink="http://www.w3.org/1999/xlink" x="0px" y="0px"
	 viewBox="0 0 70 70" style="enable-background:new 0 0 70 70;" xml:space="preserve">
<style type="text/css">
	.st0{fill:#A2D7A2;}
	.st1{fill:#E54803;}
	.st2{fill:#A03607;}
	.st3{fill:#7C2909;}
	.st4{fill:#FF6000;}
	.st5{fill:#FF9700;}
	.st6{fill:#F24506;}
	.st7{fill:#C24503;}
	.st8{fill:#FFE554;}
	.st9{fill:#3B6A79;}
	.st10{fill:#254B54;}
	.st11{fill:#FFFFFF;}
</style>
<g>
	<path class="st0" d="M67.1,67.67H2.96c-1.07,0-1.93-0.86-1.93-1.93l0,0c0-1.07,0.86-1.93,1.93-1.93H67.1
		c1.07,0,1.93,0.86,1.93,1.93l0,0C69.03,66.81,68.16,67.67,67.1,67.67z"/>
	<g>
		<path class="st1" d="M40.52,8.3c5.31,0,9.69,2.61,10.28,5.97c0.05-0.26,0.07-0.52,0.07-0.79c0-3.73-4.64-6.76-10.36-6.76
			c-5.72,0-10.36,3.03-10.36,6.76c0,0.27,0.03,0.53,0.07,0.79C30.83,10.91,35.21,8.3,40.52,8.3z"/>
		<path class="st2" d="M27.13,62.39V13.32c0-1.69-1.37-3.05-3.05-3.05h-7.09c-1.69,0-3.05,1.37-3.05,3.05v49.07
			c0,1.69,1.37,3.05,3.05,3.05h7.09C25.76,65.45,27.13,64.08,27.13,62.39z"/>
		<path class="st3" d="M26.38,62.39V13.32c0-1.69-1.29-3.05-2.88-3.05h-6.69c-1.59,0-2.88,1.37-2.88,3.05v49.07
			c0,1.69,1.29,3.05,2.88,3.05h6.69C25.09,65.45,26.38,64.08,26.38,62.39z"/>
		<path class="st3" d="M27.13,33.93v28.47c0,1.69-1.37,3.05-3.05,3.05h30.74c1.69,0,3.05-1.37,3.05-3.05V33.93H27.13z"/>
		<path class="st2" d="M19.96,47.21v13.35c0,1.49-1.21,2.69-2.69,2.69h4.92c2.25,0,3.19-2.01,3.19-3.5V47.21H19.96z"/>
		<g>
			<path class="st4" d="M11.64,63.26h6.26c1.49,0,2.69-1.21,2.69-2.69V47.21H8.95v13.35C8.95,62.05,10.16,63.26,11.64,63.26z"/>
		</g>
		<g>
			<path class="st5" d="M9.82,46.81c-0.99,0-1.92,0.68-1.92,1.66v9.51c0,1.26,1.18,2.28,2.62,2.28h6.1c1.45,0,2.62-1.02,2.62-2.28
				V46.83L9.82,46.81z"/>
		</g>
		<path class="st2" d="M24.77,46.87c-0.19-0.12-0.3-0.17-0.42-0.19h-5.7v10.8c0,1.27-1.18,2.31-2.62,2.31h-6.1
			c-0.51,0-0.99-0.13-1.39-0.36c0.48,0.5,1.19,0.82,1.99,0.82h6.1c1.45,0,2.62-1.03,2.62-2.31v-10.8h5.97L24.77,46.87z"/>
		<g>
			<path class="st6" d="M23.2,10.57h2.17c-0.39-0.18-0.83-0.3-1.29-0.3h-7.09c-0.76,0-1.45,0.29-1.98,0.75h8.84
				c0.97,0,1.81,0.59,2.18,1.42C25.56,11.34,24.47,10.57,23.2,10.57z"/>
			<path class="st6" d="M26.18,12.96c-0.03-0.18-0.09-0.36-0.16-0.52C26.09,12.61,26.14,12.78,26.18,12.96z"/>
			<path class="st6" d="M53.94,10.57H25.37c1.04,0.49,1.76,1.54,1.76,2.76v27.55c0.53,0.52,1.24,0.84,2.04,0.84h24.79
				c1.68,0,3.04-1.36,3.04-3.04V13.62C57,11.93,55.63,10.57,53.94,10.57z"/>
			<path class="st6" d="M25.37,10.57H23.2c1.27,0,2.36,0.77,2.82,1.87c0.07,0.16,0.13,0.34,0.16,0.52c0.05,0.21,0.08,0.43,0.08,0.66
				V38.8c0,0.81,0.34,1.55,0.87,2.08V13.32C27.13,12.1,26.4,11.05,25.37,10.57z"/>
		</g>
		<path class="st4" d="M57.87,13.32c0-1.69-1.37-3.05-3.05-3.05H24.07c1.69,0,3.05,1.37,3.05,3.05V38.5c0,1.61,1.3,2.91,2.91,2.91
			h24.79c1.68,0,3.04-1.36,3.04-3.04V13.32z"/>
		<g>
			<path class="st4" d="M61.88,61.5c0.01-0.02,0.02-0.04,0.03-0.06c0.06-0.14,0.11-0.28,0.15-0.43c0.01-0.04,0.02-0.07,0.03-0.11
				c0.04-0.18,0.06-0.37,0.06-0.56v-13.8c0-1.43-1.11-2.6-2.48-2.6h-25.8c-0.8,0.41-1.36,1.28-1.36,2.29v13.55
				c0,1.41,1.07,2.55,2.39,2.55h26.36l0,0c0.13-0.12,0.25-0.25,0.36-0.39c0-0.01,0.01-0.01,0.01-0.02
				C61.72,61.79,61.8,61.65,61.88,61.5z"/>
			<path class="st6" d="M61.62,60.95L61.62,60.95l-25.66,0c-1.29,0-2.33-1.08-2.33-2.41V45.72c0-0.36,0.08-0.7,0.21-1
				c-0.38,0.43-0.62,0.99-0.62,1.62v12.82c0,1.33,1.04,2.41,2.33,2.41h25.66l0,0c0.13-0.11,0.25-0.23,0.35-0.37
				c0,0,0.01-0.01,0.01-0.01c0.1-0.12,0.18-0.26,0.25-0.4c0.01-0.02,0.02-0.04,0.03-0.06c0.01-0.01,0.01-0.03,0.01-0.04
				C61.79,60.78,61.71,60.87,61.62,60.95z"/>
			<path class="st2" d="M28.99,46.54v13.8c0,1.43,1.11,2.6,2.48,2.6h28.2c0.16,0,0.31-0.02,0.46-0.05c0.09-0.02,0.18-0.05,0.27-0.08
				c0.05-0.02,0.1-0.03,0.15-0.05c0.12-0.05,0.23-0.11,0.34-0.17c0.01-0.01,0.02-0.01,0.03-0.02c0.12-0.07,0.23-0.16,0.34-0.25l0,0
				H34.89c-1.32,0-2.39-1.14-2.39-2.55V46.24c0-1.01,0.56-1.88,1.36-2.29h-2.4C30.1,43.95,28.99,45.11,28.99,46.54z"/>
		</g>
		<g>
			<g>
				<path class="st7" d="M37.97,23.65c-0.08-0.21-0.16-0.39-0.24-0.59l0-12.07c0-0.39-0.31-0.7-0.7-0.7h-7.34l-0.16,0.15l1.65,0.08
					c0.02,0,0.03,0,0.04,0c0.01,0.06,0.01,0.15,0.01,0.27l0,12.27c-0.08,0.21-0.16,0.39-0.24,0.6c-0.5,0.46-0.82,1.17-0.82,1.95
					v4.41c0,0.79,0.31,1.49,0.82,1.95c0.09,0.21,0.16,0.39,0.25,0.6l0,4.53c0,1.06,0.72,1.94,1.62,2L36,39.09
					c0.46,0,0.9-0.21,1.22-0.59c0.16-0.18,0.28-0.4,0.37-0.64c0.09-0.25,0.14-0.51,0.14-0.78l0-4.53c0.08-0.21,0.16-0.39,0.25-0.6
					c0.5-0.46,0.82-1.16,0.82-1.95V25.6C38.79,24.82,38.48,24.11,37.97,23.65z"/>
			</g>
			<g>
				<path class="st5" d="M36.69,38.16h-3.44c-0.54,0-0.97-0.43-0.97-0.97V11.54c0-0.83-0.26-1.26-1.06-1.26l-1.38-0.03
					c0,0,0.52-0.42,0.89-0.42c0.37,0,4.72,0.01,5.12,0c1.17,0,1.8,0.35,1.8,1.23v26.12C37.66,37.73,37.23,38.16,36.69,38.16z"/>
				<path class="st8" d="M37.45,10.49c0,0.03,0.02,0.05,0.02,0.08v26.65c0,0.39-0.32,0.7-0.7,0.7h-3.97c-0.08,0-0.15-0.02-0.22-0.04
					c0.18,0.18,0.42,0.29,0.69,0.29h3.44c0.54,0,0.97-0.43,0.97-0.97V11.07C37.66,10.85,37.57,10.65,37.45,10.49z"/>
				<ellipse class="st7" cx="34.97" cy="28.18" rx="1.07" ry="1.05"/>
				<ellipse class="st7" cx="34.97" cy="24.39" rx="1.07" ry="1.05"/>
				<ellipse class="st7" cx="34.97" cy="20.14" rx="1.07" ry="1.05"/>
				<path class="st9" d="M37.74,24.59v0.88c0.18,0.11,0.31,0.3,0.31,0.52v4.3c0,0.34-0.28,0.62-0.62,0.62h-4.91
					c-0.34,0-0.62-0.28-0.62-0.62v-4.3c0-0.25,0.15-0.47,0.37-0.56v-0.84c-0.67,0.12-1.18,0.7-1.18,1.41v4.3
					c0,0.79,0.64,1.43,1.43,1.43h4.91c0.79,0,1.43-0.64,1.43-1.43v-4.3C38.86,25.3,38.38,24.73,37.74,24.59z"/>
				<path class="st10" d="M32.27,25.42v-0.84c-0.06,0.01-0.11,0.03-0.17,0.05v0.71c-0.23,0.1-0.39,0.33-0.39,0.6v4.58
					c0,0.36,0.29,0.66,0.66,0.66h5.22c0.36,0,0.66-0.29,0.66-0.66v-4.58c0-0.24-0.14-0.44-0.33-0.55v-0.72
					c-0.06-0.02-0.11-0.06-0.17-0.07v0.88c0.18,0.11,0.31,0.3,0.31,0.52v4.3c0,0.34-0.28,0.62-0.62,0.62h-4.91
					c-0.34,0-0.62-0.28-0.62-0.62v-4.3C31.9,25.73,32.05,25.52,32.27,25.42z"/>
				<path class="st10" d="M35.15,31.67h-0.36c-0.2,0-0.36-0.16-0.36-0.36v-3.35c0-0.2,0.16-0.36,0.36-0.36h0.36
					c0.2,0,0.36,0.16,0.36,0.36v3.35C35.52,31.51,35.36,31.67,35.15,31.67z"/>
				<path class="st9" d="M35.14,31.39h-0.33c-0.19,0-0.34-0.15-0.34-0.34v-3.12c0-0.19,0.15-0.34,0.34-0.34h0.33
					c0.19,0,0.34,0.15,0.34,0.34v3.12C35.48,31.23,35.33,31.39,35.14,31.39z"/>
			</g>
		</g>
		<g>
			<g>
				<path class="st7" d="M52.64,23.65c-0.08-0.21-0.16-0.39-0.24-0.59l0-12.07c0-0.39-0.31-0.7-0.7-0.7h-7.34l-0.16,0.15l1.65,0.08
					c0.02,0,0.03,0,0.04,0c0.01,0.06,0.01,0.15,0.01,0.27l0,12.27c-0.08,0.21-0.16,0.39-0.24,0.6c-0.5,0.46-0.82,1.17-0.82,1.95
					v4.41c0,0.79,0.31,1.49,0.82,1.95c0.09,0.21,0.16,0.39,0.25,0.6l0,4.53c0,1.06,0.72,1.94,1.62,2l3.15,0.01
					c0.46,0,0.9-0.21,1.22-0.59c0.16-0.18,0.28-0.4,0.37-0.64c0.09-0.25,0.14-0.51,0.14-0.78l0-4.53c0.08-0.21,0.16-0.39,0.25-0.6
					c0.5-0.46,0.82-1.16,0.82-1.95V25.6C53.45,24.82,53.14,24.11,52.64,23.65z"/>
			</g>
			<g>
				<path class="st5" d="M51.36,38.16h-3.44c-0.54,0-0.97-0.43-0.97-0.97V11.54c0-0.83-0.26-1.26-1.06-1.26l-1.38-0.03
					c0,0,0.52-0.42,0.89-0.42c0.37,0,4.72,0.01,5.12,0c1.17,0,1.8,0.35,1.8,1.23v26.12C52.32,37.73,51.89,38.16,51.36,38.16z"/>
				<path class="st8" d="M52.11,10.49c0,0.03,0.02,0.05,0.02,0.08v26.65c0,0.39-0.32,0.7-0.7,0.7h-3.97c-0.08,0-0.15-0.02-0.22-0.04
					c0.18,0.18,0.42,0.29,0.69,0.29h3.44c0.54,0,0.97-0.43,0.97-0.97V11.07C52.32,10.85,52.24,10.65,52.11,10.49z"/>
				<ellipse class="st7" cx="49.64" cy="28.18" rx="1.07" ry="1.05"/>
				<ellipse class="st7" cx="49.64" cy="24.39" rx="1.07" ry="1.05"/>
				<ellipse class="st7" cx="49.64" cy="20.14" rx="1.07" ry="1.05"/>
				<path class="st9" d="M52.4,24.59v0.88c0.18,0.11,0.31,0.3,0.31,0.52v4.3c0,0.34-0.28,0.62-0.62,0.62h-4.91
					c-0.34,0-0.62-0.28-0.62-0.62v-4.3c0-0.25,0.15-0.47,0.37-0.56v-0.84c-0.67,0.12-1.18,0.7-1.18,1.41v4.3
					c0,0.79,0.64,1.43,1.43,1.43h4.91c0.79,0,1.43-0.64,1.43-1.43v-4.3C53.52,25.3,53.04,24.73,52.4,24.59z"/>
				<path class="st10" d="M46.93,25.42v-0.84c-0.06,0.01-0.11,0.03-0.17,0.05v0.71c-0.23,0.1-0.39,0.33-0.39,0.6v4.58
					c0,0.36,0.29,0.66,0.66,0.66h5.22c0.36,0,0.66-0.29,0.66-0.66v-4.58c0-0.24-0.14-0.44-0.33-0.55v-0.72
					c-0.06-0.02-0.11-0.06-0.17-0.07v0.88c0.18,0.11,0.31,0.3,0.31,0.52v4.3c0,0.34-0.28,0.62-0.62,0.62h-4.91
					c-0.34,0-0.62-0.28-0.62-0.62v-4.3C46.56,25.73,46.72,25.52,46.93,25.42z"/>
				<path class="st10" d="M49.82,31.67h-0.36c-0.2,0-0.36-0.16-0.36-0.36v-3.35c0-0.2,0.16-0.36,0.36-0.36h0.36
					c0.2,0,0.36,0.16,0.36,0.36v3.35C50.18,31.51,50.02,31.67,49.82,31.67z"/>
				<path class="st9" d="M49.8,31.39h-0.33c-0.19,0-0.34-0.15-0.34-0.34v-3.12c0-0.19,0.15-0.34,0.34-0.34h0.33
					c0.19,0,0.34,0.15,0.34,0.34v3.12C50.14,31.23,49.99,31.39,49.8,31.39z"/>
			</g>
		</g>
		<path class="st4" d="M20.56,11.04v30.79h-0.59V11.04h-0.92v31.28c0,0.65,0.53,1.18,1.18,1.18s1.18-0.53,1.18-1.18V11.04H20.56z"/>
		<path class="st2" d="M60.27,48.18H35.52c-0.47,0-0.85-0.38-0.85-0.85v-0.21c0-0.47,0.38-0.85,0.85-0.85h24.76
			c0.47,0,0.85,0.38,0.85,0.85v0.21C61.12,47.8,60.74,48.18,60.27,48.18z"/>
		<ellipse class="st1" cx="13.45" cy="57.47" rx="1.14" ry="1.17"/>
		<g>
			<g>
				<path class="st11" d="M20.37,41.17h-0.15c-0.32,0-0.57,0.26-0.57,0.57v2.87c0,0.32,0.26,0.57,0.57,0.57h0.15
					c0.32,0,0.57-0.26,0.57-0.57v-2.87C20.94,41.43,20.68,41.17,20.37,41.17z M20.51,41.83h-0.46c-0.1,0-0.18-0.08-0.18-0.18
					c0-0.1,0.08-0.18,0.18-0.18h0.46c0.1,0,0.18,0.08,0.18,0.18C20.7,41.75,20.62,41.83,20.51,41.83z"/>
			</g>
			<path class="st5" d="M19.64,44.26v0.35c0,0.32,0.26,0.57,0.57,0.57h0.15c0.32,0,0.57-0.26,0.57-0.57v-0.35H19.64z"/>
		</g>
		<g>
			<g>
				<path class="st11" d="M59.7,46.85h-0.15c-0.32,0-0.57,0.26-0.57,0.57v2.87c0,0.32,0.26,0.57,0.57,0.57h0.15
					c0.32,0,0.57-0.26,0.57-0.57v-2.87C60.27,47.11,60.02,46.85,59.7,46.85z M59.85,47.51h-0.46c-0.1,0-0.18-0.08-0.18-0.18
					c0-0.1,0.08-0.18,0.18-0.18h0.46c0.1,0,0.18,0.08,0.18,0.18C60.03,47.42,59.95,47.51,59.85,47.51z"/>
			</g>
			<path class="st5" d="M58.98,49.93v0.35c0,0.32,0.26,0.57,0.57,0.57h0.15c0.32,0,0.57-0.26,0.57-0.57v-0.35H58.98z"/>
		</g>
	</g>
</g>
</svg>
