<?xml version="1.0" encoding="utf-8"?>
<!-- Generator: Adobe Illustrator 26.0.2, SVG Export Plug-In . SVG Version: 6.00 Build 0)  -->
<svg version="1.1" id="Layer_4" xmlns="http://www.w3.org/2000/svg" xmlns:xlink="http://www.w3.org/1999/xlink" x="0px" y="0px"
	 viewBox="0 0 70 70" style="enable-background:new 0 0 70 70;" xml:space="preserve">
<style type="text/css">
	.st0{fill:#A2D7A2;}
	.st1{fill:#3B6A79;}
	.st2{fill:#254B54;}
	.st3{fill:#F24506;}
	.st4{fill:#FF6000;}
	.st5{fill:#8E4306;}
	.st6{fill:#FFFFFF;}
	.st7{fill:#FF9700;}
</style>
<g>
	<path class="st0" d="M67.1,67.67H2.96c-1.07,0-1.93-0.86-1.93-1.93l0,0c0-1.07,0.86-1.93,1.93-1.93H67.1
		c1.07,0,1.93,0.86,1.93,1.93l0,0C69.03,66.81,68.16,67.67,67.1,67.67z"/>
	<g>
		<g>
			<g>
				<g>
					<path class="st1" d="M65.37,65.43h-1.17c0-27.01-13.08-48.99-29.17-48.99S5.86,38.42,5.86,65.43H4.69
						c0-27.9,13.61-50.6,30.34-50.6S65.37,37.53,65.37,65.43z"/>
				</g>
			</g>
			<path class="st2" d="M64.19,64.7c0-27.01-13.08-48.99-29.17-48.99S5.86,37.68,5.86,64.7H4.7c0,0.25-0.01,0.49-0.01,0.74h1.17
				c0-27.01,13.08-48.99,29.17-48.99s29.17,21.98,29.17,48.99h1.17c0-0.25-0.01-0.49-0.01-0.74H64.19z"/>
			<path class="st3" d="M9.38,53.41l-3.71-0.59c-0.3-0.05-0.57,0.24-0.61,0.65l-0.22,2.19c-0.04,0.42,0.18,0.81,0.49,0.86l3.73,0.58
				"/>
			<path class="st3" d="M14.24,36.89L11,34.34c-0.26-0.21-0.6-0.09-0.75,0.26l-0.84,1.89c-0.16,0.36-0.07,0.84,0.2,1.05l3.26,2.56"
				/>
			<path class="st3" d="M22.54,25.26l-2.37-3.96c-0.19-0.32-0.53-0.37-0.77-0.12l-1.27,1.36c-0.24,0.26-0.28,0.75-0.09,1.08
				l2.38,3.97"/>
			<path class="st3" d="M60.46,53.41l3.71-0.59c0.3-0.05,0.57,0.24,0.61,0.65l0.22,2.19c0.04,0.42-0.18,0.81-0.49,0.86l-3.73,0.58"
				/>
			<path class="st3" d="M55.6,36.89l3.24-2.55c0.26-0.21,0.6-0.09,0.75,0.26l0.84,1.89c0.16,0.36,0.07,0.84-0.2,1.05l-3.26,2.56"/>
			<path class="st3" d="M47.3,25.26l2.37-3.96c0.19-0.32,0.53-0.37,0.77-0.12l1.27,1.36c0.24,0.26,0.28,0.75,0.09,1.08l-2.38,3.97"
				/>
			<path class="st3" d="M35.85,20.33h-1.64c-0.36,0-0.65-0.29-0.65-0.65v-4.78c0-0.36,0.29-0.65,0.65-0.65h1.64
				c0.36,0,0.65,0.29,0.65,0.65v4.78C36.5,20.04,36.21,20.33,35.85,20.33z"/>
		</g>
		<g>
			<g>
				<path class="st4" d="M35.03,17.93C20.15,17.93,8.1,39.2,8.1,65.43h53.86C61.96,39.2,49.9,17.93,35.03,17.93z"/>
			</g>
		</g>
		<path class="st3" d="M35.03,43.34c20.95,0,26.93,22.09,26.93,22.09c0-26.24-12.06-39.94-26.93-39.94S8.1,39.2,8.1,65.43h0.12
			C8.21,65.43,14.08,43.34,35.03,43.34z"/>
		<g>
			<rect x="34.73" y="27.74" class="st5" width="0.59" height="36.5"/>
		</g>
		<g>
			<g>
				<g>
					<rect x="22.97" y="38.62" class="st3" width="9.06" height="10.05"/>
					<rect x="22.17" y="37.97" class="st4" width="9.06" height="10.05"/>
					<g>
						<rect x="22.76" y="38.45" class="st6" width="3.69" height="4.33"/>
						<rect x="26.95" y="38.45" class="st6" width="3.69" height="4.33"/>
						<rect x="22.76" y="43.2" class="st6" width="3.69" height="4.33"/>
						<rect x="26.95" y="43.2" class="st6" width="3.69" height="4.33"/>
					</g>
				</g>
			</g>
			<g>
				<g>
					
						<rect x="38.02" y="38.62" transform="matrix(-1 -4.538293e-11 4.538293e-11 -1 85.1036 87.2905)" class="st3" width="9.06" height="10.05"/>
					
						<rect x="38.83" y="37.97" transform="matrix(-1 -4.538293e-11 4.538293e-11 -1 86.7103 85.9833)" class="st4" width="9.06" height="10.05"/>
					<g>
						<rect x="43.61" y="38.45" class="st6" width="3.69" height="4.33"/>
						<rect x="39.42" y="38.45" class="st6" width="3.69" height="4.33"/>
						<rect x="43.61" y="43.2" class="st6" width="3.69" height="4.33"/>
						<rect x="39.42" y="43.2" class="st6" width="3.69" height="4.33"/>
					</g>
				</g>
			</g>
		</g>
		<path class="st1" d="M35.03,27.74c14.44,0,26.22,12.92,26.9,37.69h0.03c0-26.24-12.06-39.94-26.93-39.94S8.1,39.2,8.1,65.43h0.03
			C8.8,40.67,20.59,27.74,35.03,27.74z"/>
		<path class="st7" d="M34.49,28.79c14.76,0,26.12,12.42,27.36,36.64h0.12c0-26.24-12.06-38.41-26.93-38.41S8.1,39.2,8.1,65.43h0.12
			C9.45,41.22,19.72,28.79,34.49,28.79z"/>
	</g>
</g>
</svg>
