<?xml version="1.0" encoding="utf-8"?>
<!-- Generator: Adobe Illustrator 26.0.2, SVG Export Plug-In . SVG Version: 6.00 Build 0)  -->
<svg version="1.1" id="Layer_7" xmlns="http://www.w3.org/2000/svg" xmlns:xlink="http://www.w3.org/1999/xlink" x="0px" y="0px"
	 viewBox="0 0 70 70" style="enable-background:new 0 0 70 70;" xml:space="preserve">
<style type="text/css">
	.st0{fill:#A2D7A2;}
	.st1{fill:#FF6000;}
	.st2{fill:#F24506;}
	.st3{fill:#A03607;}
	.st4{fill:#FFFFFF;}
	.st5{fill:#FF9700;}
	.st6{fill:#007F43;}
	.st7{fill:#00B34C;}
	.st8{fill:#02A544;}
	.st9{fill:#1BE06A;}
	.st10{fill:#FFA300;}
</style>
<g>
	<g>
		<path class="st0" d="M67.1,67.67H2.96c-1.07,0-1.93-0.86-1.93-1.93l0,0c0-1.07,0.86-1.93,1.93-1.93H67.1
			c1.07,0,1.93,0.86,1.93,1.93l0,0C69.03,66.81,68.16,67.67,67.1,67.67z"/>
		<g>
			<path class="st1" d="M37.12,66.32c-0.84,0-1.68,0-2.53,0c-6.03,0-13.31-6.8-15.25-15.32c-2.01-10.67-3.02-21.43-2.84-32.1
				c0.25-8.52,8.69-15.32,17.57-15.32c1.19,0,2.38,0,3.56,0c8.88,0,17.32,6.8,17.57,15.32c0.18,10.67-0.83,21.43-2.84,32.1
				C50.42,59.52,43.15,66.32,37.12,66.32z"/>
			<path class="st2" d="M37.64,3.58c-0.04,0-0.08,0-0.12,0c8.29,0,16.07,6.33,16.35,14.26c0.23,9.93-0.51,19.95-2.08,29.9
				c-1.52,7.94-8.44,14.31-14.65,14.31c-0.85,0-1.71,0-2.56,0c-6.2,0-13.13-6.36-14.65-14.31c-1.56-9.95-2.31-19.97-2.08-29.9
				C18.13,9.92,25.91,3.58,34.2,3.58c-0.04,0-0.08,0-0.12,0c-8.88,0-17.32,6.8-17.57,15.32c-0.18,10.67,0.83,21.43,2.84,32.1
				c1.95,8.52,9.22,15.32,15.25,15.32c0.84,0,1.68,0,2.53,0c6.03,0,13.31-6.8,15.25-15.32c2.01-10.67,3.02-21.43,2.84-32.1
				C54.96,10.38,46.52,3.58,37.64,3.58z"/>
			<g>
				<path class="st3" d="M55.23,21.27c-12.92,0-25.83,0-38.75,0c0,0.64,0,1.28,0.01,1.92c12.91,0,25.82,0,38.72,0
					C55.22,22.54,55.23,21.9,55.23,21.27z"/>
				<path class="st3" d="M17.05,34.37c12.54,0,25.08,0,37.61,0c0.06-0.64,0.11-1.28,0.15-1.92c-12.64,0-25.28,0-37.92,0
					C16.94,33.09,16.99,33.73,17.05,34.37z"/>
				<path class="st3" d="M18.4,45.56c11.64,0,23.27,0,34.91,0c0.1-0.64,0.2-1.28,0.29-1.92c-11.83,0-23.65,0-35.48,0
					C18.21,44.28,18.3,44.92,18.4,45.56z"/>
				<path class="st3" d="M21.49,56.7c9.57,0,19.15,0,28.72,0c0.35-0.62,0.68-1.25,0.96-1.91c-10.22,0-20.43,0-30.65,0
					C20.82,55.45,21.14,56.08,21.49,56.7z"/>
			</g>
			<path class="st3" d="M52.71,21.92c0.07-0.53,0.1-1.07,0.1-1.62c-0.14-8.27-8.2-14.88-16.96-14.88c-8.76,0-16.82,6.61-16.96,14.88
				c0,0.55,0.03,1.08,0.1,1.62C30.24,21.92,41.47,21.92,52.71,21.92z"/>
			<path class="st3" d="M35.85,62.67L35.85,62.67c-0.59,0-1.09-0.59-1.1-1.31c-0.25-12.98-0.39-26.21-0.4-39.32
				c0-0.73,0.67-1.32,1.5-1.32l0,0c0.83,0,1.5,0.59,1.5,1.32c0,13.11-0.15,26.34-0.4,39.32C36.94,62.08,36.45,62.67,35.85,62.67z"/>
			<path class="st1" d="M36.1,60.92c-0.16,0-0.33,0-0.49,0c-0.06-12.96-0.09-26.17-0.09-39.25c0.22,0,0.44,0,0.67,0
				C36.19,34.75,36.16,47.96,36.1,60.92z"/>
			<g>
				<g>
					<path class="st4" d="M35.18,20.86c-0.04,0.04-0.08,0.08-0.13,0.12c-0.26,0.24-0.25,0.61,0.02,0.84
						c0.81,0.69,1.63,1.38,2.44,2.07c0.27,0.23,0.69,0.22,0.95-0.02c0.04-0.04,0.08-0.08,0.13-0.12c0.26-0.24,0.25-0.62-0.02-0.84
						c-0.81-0.69-1.63-1.38-2.44-2.07C35.87,20.62,35.44,20.62,35.18,20.86z M35.86,21.22c-0.12,0.11-0.25,0.23-0.37,0.34
						c-0.08,0.08-0.22,0.08-0.31,0.01c-0.09-0.07-0.09-0.19-0.01-0.27c0.12-0.11,0.25-0.23,0.37-0.34c0.08-0.08,0.22-0.08,0.31-0.01
						C35.94,21.03,35.94,21.15,35.86,21.22z"/>
				</g>
				<path class="st5" d="M37.21,23.63c0.1,0.09,0.2,0.17,0.3,0.26c0.27,0.23,0.69,0.22,0.95-0.02c0.04-0.04,0.08-0.08,0.13-0.12
					c0.26-0.24,0.25-0.62-0.02-0.84c-0.1-0.09-0.2-0.17-0.3-0.26C37.92,22.98,37.57,23.31,37.21,23.63z"/>
			</g>
		</g>
		<g>
			<path class="st3" d="M43.59,25.87c0.03-0.02,0.06-0.05,0.08-0.07c0.11-0.09,0.21-0.19,0.32-0.28c0.02-0.02,0.05-0.04,0.07-0.07
				c0.08-0.08,0.16-0.15,0.24-0.23c0.06-0.06,0.12-0.12,0.18-0.18c0.03-0.03,0.05-0.06,0.08-0.09c0.04-0.04,0.08-0.08,0.12-0.13
				c0.1-0.11,0.2-0.22,0.29-0.33c0.08-0.1,0.16-0.19,0.24-0.29c0.13-0.16,0.25-0.32,0.37-0.48c0.01-0.02,0.03-0.04,0.04-0.06
				c0.07-0.1,0.14-0.2,0.21-0.3c0.06-0.08,0.11-0.17,0.16-0.25c0.03-0.04,0.05-0.08,0.08-0.12c0.04-0.06,0.07-0.12,0.11-0.18
				c0.06-0.11,0.13-0.22,0.19-0.33c0.02-0.04,0.04-0.07,0.06-0.11c0.01-0.02,0.02-0.04,0.03-0.06c0.08-0.15,0.16-0.3,0.23-0.46
				c0.04-0.09,0.08-0.18,0.12-0.26c0.11-0.24,0.21-0.48,0.3-0.72c0.02-0.06,0.04-0.12,0.06-0.17c0.05-0.14,0.09-0.27,0.14-0.41
				c0.01-0.04,0.02-0.07,0.03-0.11c0.03-0.1,0.06-0.2,0.09-0.3c0-0.01,0.01-0.03,0.01-0.04c0.02-0.07,0.03-0.14,0.05-0.22
				c0.02-0.07,0.03-0.13,0.05-0.2c0.02-0.07,0.03-0.14,0.04-0.21c0.03-0.13,0.05-0.27,0.07-0.4c0-0.03,0.01-0.05,0.01-0.08
				c0.02-0.13,0.04-0.27,0.06-0.4c0.21-1.78-0.02-3.75-1.04-5.28c0.3-0.02,0.61-0.11,0.89-0.2c0-0.09,0.11-0.13,0.21-0.17
				c0.09-0.03,0.2-0.11,0.15-0.19c-0.03-0.05-0.11-0.08-0.09-0.14c0.01-0.02,0.03-0.03,0.05-0.05c0.2-0.14,0.29-0.37,0.31-0.6
				s-0.03-0.45-0.08-0.68c-0.02-0.11-0.05-0.22-0.07-0.33c-0.04-0.19-0.12-0.42-0.34-0.48c0.02-0.16-0.06-0.32-0.19-0.43
				c-0.08-0.07-0.13-0.03-0.21-0.05c-0.12-0.02-0.21-0.08-0.32-0.14c-0.22-0.11-0.49-0.1-0.74-0.09c-0.07,0-0.14,0.01-0.19,0.05
				c-0.15-0.05-0.34-0.1-0.47-0.01c-0.05,0.03-0.08,0.08-0.12,0.11c-0.12,0.09-0.31,0.11-0.4,0.22c-0.12,0.15-0.14,0.22-0.34,0.3
				c-0.09,0.04-0.19,0.07-0.25,0.14c-0.08,0.09-0.11,0.22-0.14,0.32c0,0.01,0,0.02,0,0.02C40.16,7.88,33.25,8.39,29,11.4
				c-0.34,0.24-0.63,0.47-0.88,0.71c-0.29-0.05-0.54-0.04-0.73,0.04c-0.26-0.01-0.47,0.03-0.63,0.14c-0.52,0.37-1.43,2.11-1.82,2.39
				c-0.32,0.23-0.36,0.73-0.17,1.42c0.2,1.51,2.02,4.4,4.74,7.36c2.72,2.97,5.55,5.14,7.18,5.64c0.73,0.31,1.29,0.38,1.62,0.15
				c0.39-0.28,2.52-0.68,3.04-1.05c0.16-0.11,0.25-0.29,0.29-0.51c0.13-0.15,0.2-0.35,0.2-0.62c0.09-0.05,0.17-0.1,0.26-0.15
				c0.05-0.03,0.09-0.06,0.14-0.09c0.07-0.04,0.15-0.09,0.22-0.14c0.12-0.08,0.23-0.15,0.35-0.23c0,0,0,0,0,0
				c0.19-0.14,0.38-0.28,0.57-0.43c0.05-0.04,0.1-0.08,0.15-0.12C43.55,25.9,43.57,25.89,43.59,25.87z"/>
			<g>
				<g>
					<path class="st6" d="M42.59,8.48c0.07-0.13,0.24-0.16,0.34-0.27c0.04-0.04,0.06-0.09,0.1-0.13c0.11-0.1,0.28-0.07,0.43-0.03
						c0.04-0.05,0.11-0.06,0.17-0.07c0.23-0.04,0.47-0.07,0.68,0.02c0.11,0.05,0.19,0.1,0.31,0.11c0.08,0.01,0.12-0.03,0.2,0.03
						c0.13,0.1,0.21,0.26,0.21,0.43c0.2,0.04,0.29,0.27,0.35,0.47c0.03,0.11,0.06,0.22,0.1,0.34c0.07,0.23,0.13,0.46,0.13,0.69
						c0,0.24-0.06,0.48-0.23,0.65c-0.02,0.02-0.03,0.03-0.04,0.05c-0.01,0.06,0.07,0.08,0.1,0.13c0.05,0.08-0.04,0.17-0.12,0.21
						c-0.08,0.04-0.19,0.1-0.18,0.19c-0.41,0.19-0.87,0.39-1.31,0.28c-0.13-0.03-0.25-0.1-0.39-0.12c-0.08-0.01-0.16-0.01-0.24-0.04
						c-0.2-0.06-0.32-0.25-0.49-0.37c-0.2-0.14-0.42-0.24-0.55-0.47c-0.05-0.09-0.09-0.19-0.1-0.3c0-0.04,0-0.08-0.02-0.11
						c-0.01-0.02-0.04-0.03-0.05-0.05c-0.06-0.08,0.03-0.19,0.05-0.28c0.03-0.17-0.08-0.32-0.06-0.5c0.01-0.11,0.03-0.25,0.1-0.35
						c0.05-0.08,0.14-0.12,0.22-0.17C42.48,8.72,42.5,8.65,42.59,8.48z"/>
					<path class="st7" d="M42.59,8.48c0.07-0.13,0.24-0.16,0.34-0.27c0.04-0.04,0.06-0.09,0.1-0.13c0.11-0.1,0.28-0.07,0.43-0.03
						c0.04-0.05,0.11-0.06,0.17-0.07c0.23-0.04,0.47-0.07,0.68,0.02c0.11,0.05,0.19,0.1,0.31,0.11c0.08,0.01,0.12-0.03,0.2,0.03
						c0.13,0.1,0.21,0.26,0.21,0.43c0.2,0.04,0.29,0.27,0.35,0.47c0.03,0.11,0.06,0.22,0.1,0.34c0.07,0.23,0.13,0.46,0.13,0.69
						c0,0.24-0.06,0.48-0.23,0.65c-0.02,0.02-0.03,0.03-0.04,0.05c-0.01,0.06,0.07,0.08,0.1,0.13c0.05,0.08-0.04,0.17-0.12,0.21
						c-0.08,0.04-0.19,0.1-0.18,0.19c-0.41,0.19-0.87,0.39-1.31,0.28c-0.13-0.03-0.25-0.1-0.39-0.12c-0.08-0.01-0.16-0.01-0.24-0.04
						c-0.2-0.06-0.32-0.25-0.49-0.37c-0.2-0.14-0.42-0.24-0.55-0.47c-0.05-0.09-0.09-0.19-0.1-0.3c0-0.04,0-0.08-0.02-0.11
						c-0.01-0.02-0.04-0.03-0.05-0.05c-0.06-0.08,0.03-0.19,0.05-0.28c0.03-0.17-0.08-0.32-0.06-0.5c0.01-0.11,0.03-0.25,0.1-0.35
						c0.05-0.08,0.14-0.12,0.22-0.17C42.48,8.72,42.5,8.65,42.59,8.48z"/>
					<path class="st8" d="M42.68,9.7c0.2,0.08,0.29,0.34,0.49,0.4c0.12,0.03,0.25-0.01,0.32-0.11c0.05,0.1,0.1,0.19,0.16,0.29
						c0.03,0.05,0.06,0.1,0.1,0.13c0.05,0.03,0.12,0.03,0.15-0.02c0.08,0.07,0.19,0.1,0.29,0.09c0.01-0.07,0.02-0.15,0.02-0.23
						c0.1,0.06,0.26-0.01,0.27-0.13c0.01-0.06-0.01-0.13,0.04-0.16c0.03-0.01,0.06-0.01,0.09,0c0.13,0.01,0.24-0.13,0.2-0.26
						c0.07,0,0.13,0.01,0.2,0.01c0.02,0,0.03,0,0.05-0.01c0.03-0.02,0.01-0.07,0.01-0.1c-0.01-0.08,0.08-0.13,0.14-0.18
						c0.06-0.04,0.13-0.11,0.1-0.19c0.02,0.1,0.08,0.18,0.12,0.27c0.05,0.14,0.07,0.31,0.07,0.46c0,0.24-0.06,0.48-0.23,0.65
						c-0.02,0.02-0.03,0.03-0.04,0.05c-0.01,0.06,0.07,0.08,0.1,0.13c0.05,0.08-0.04,0.17-0.12,0.21c-0.08,0.04-0.19,0.1-0.18,0.19
						c-0.41,0.19-0.87,0.39-1.31,0.28c-0.13-0.03-0.25-0.1-0.39-0.12c-0.08-0.01-0.16-0.01-0.24-0.04c-0.2-0.06-0.32-0.25-0.49-0.37
						c-0.15-0.11-0.39-0.21-0.47-0.39c-0.08-0.18-0.02-0.41,0.12-0.54c0.01-0.01,0.03-0.02,0.05-0.03c0.04-0.01,0.07,0.02,0.09,0.05
						c0.02,0.03,0.03,0.07,0.04,0.1c0.05,0.09,0.17,0.11,0.28,0.11c0.02,0,0.04,0,0.05-0.01c0.01-0.01,0.01-0.03,0.02-0.05
						c0.01-0.11,0.02-0.23-0.04-0.33C42.72,9.84,42.65,9.77,42.68,9.7z"/>
					<path class="st9" d="M42.62,8.61c0.07-0.13,0.24-0.16,0.34-0.27c0.04-0.04,0.06-0.09,0.1-0.13c0.11-0.1,0.28-0.07,0.43-0.03
						c0.04-0.05,0.11-0.06,0.17-0.07c0.23-0.04,0.47-0.07,0.68,0.02c0.11,0.05,0.19,0.1,0.31,0.11c0.08,0.01,0.12-0.03,0.2,0.03
						C45,8.38,45,8.55,45.1,8.68c0.12,0.16,0.18,0.22,0.2,0.43C45.29,8.97,45.14,8.87,45,8.9c0,0.11,0,0.23,0.01,0.34
						c-0.09,0.02-0.21,0.03-0.23-0.06c-0.01-0.04,0.01-0.08,0.01-0.12c0-0.04-0.04-0.08-0.07-0.06c0.03-0.09,0.06-0.18,0.08-0.28
						c0.01-0.03,0.01-0.06,0-0.08c-0.02-0.03-0.06-0.04-0.1-0.04c-0.05,0-0.1-0.01-0.16-0.01c-0.03,0-0.06,0-0.09,0.01
						c-0.03,0.01-0.04,0.05-0.03,0.07c-0.04-0.08-0.11-0.15-0.19-0.2c-0.03-0.01-0.06-0.03-0.09-0.02c-0.06,0-0.1,0.06-0.11,0.11
						c-0.01,0.05,0,0.11,0.01,0.16c-0.09-0.05-0.2-0.06-0.3-0.05c-0.02,0-0.04,0.01-0.06,0.03c-0.01,0.01-0.01,0.03-0.01,0.05
						c0,0.08-0.01,0.17-0.01,0.25C43.6,9,43.54,8.98,43.48,8.99c-0.06,0.01-0.12,0.06-0.12,0.12C43.18,9,43.01,8.87,42.83,8.75
						c-0.02,0.06-0.06,0.13-0.09,0.18c-0.01,0.02-0.02,0.04-0.04,0.04c-0.04,0.01-0.07-0.04-0.11-0.06
						c-0.07-0.04-0.16,0.02-0.22,0.08c-0.11,0.11-0.21,0.22-0.32,0.33c0.01-0.21,0.11-0.28,0.28-0.39
						C42.51,8.85,42.52,8.78,42.62,8.61z"/>
					<g>
						<path class="st7" d="M28.01,11.58c-4.1,3.99-0.65,6.86,3.2,10.81s6.64,7.46,10.75,3.47s5.32-11.4,1.47-15.34
							S32.11,7.59,28.01,11.58z"/>
						<path class="st8" d="M32.99,23.76c1.31,1.39,2.28,2.98,4.18,3.63c1.82,0.62,3.48-0.28,4.78-1.54c1.98-1.93,3.26-4.57,3.67-7.3
							c0.37-2.47,0.06-5.66-1.76-7.56c-0.22-0.23-0.44-0.49-0.69-0.67c-0.31,0.28,0.3,1.88,0.32,2.38c0.02,0.53-0.03,1.07-0.17,1.59
							c-0.25,0.88-0.78,1.65-1.3,2.4c-0.51,0.73-1.02,1.48-1.71,2.04c-0.62,0.51-1.39,0.88-1.83,1.55c-0.06,0.1-0.12,0.2-0.21,0.27
							c-0.12,0.08-0.27,0.09-0.42,0.09c-2.37,0.06-4.74-0.15-7.06-0.62C31.43,21.37,31.96,22.66,32.99,23.76z"/>
						<path class="st9" d="M29.47,12.23c0.35-0.22,0.7-0.44,1.05-0.66c0.68-0.43,1.38-0.86,2.17-0.97c0.24-0.03,0.49-0.04,0.69-0.17
							c0.24-0.16,0.33-0.47,0.56-0.65c0.36-0.3,0.88-0.18,1.35-0.19c0.82-0.03,1.55-0.54,2.35-0.71c0.8-0.18,1.64-0.02,2.45,0.13
							c-1.27-0.69-2.83-0.71-4.23-0.59c-2.79,0.24-5.56,1.41-7.59,3.36c-0.02,0.02-0.04,0.04-0.06,0.05c-0.59,0.58-1.06,1.18-1.27,2
							C27.78,13.29,28.62,12.76,29.47,12.23z"/>
						<path class="st9" d="M33.46,12.87c0.17-0.08,0.32-0.21,0.41-0.38c0.03-0.07,0.06-0.14,0.11-0.19c0.04-0.05,0.1-0.08,0.15-0.1
							c0.4-0.21,0.8-0.43,1.21-0.64c0.08-0.04,0.16-0.08,0.25-0.07c0.11,0.02,0.22,0.13,0.32,0.08c0.03-0.23,0-0.47-0.08-0.69
							c0.19,0.03,0.39-0.02,0.54-0.13c0.08-0.06,0.16-0.14,0.25-0.13c0.05,0,0.1,0.04,0.15,0.07c0.17,0.12,0.33,0.24,0.5,0.37
							c-0.02-0.13,0.08-0.26,0.21-0.31c0.12-0.06,0.26-0.08,0.38-0.14c0.09-0.04,0.17-0.11,0.25-0.17c0.13-0.09,0.27-0.16,0.41-0.22
							c0.89-0.41,1.81-0.77,2.74-1.07c-0.58-0.03-1.16-0.07-1.73-0.02c-0.53,0.05-0.98,0.25-1.48,0.37
							c-1.3,0.31-2.56,0.82-3.71,1.52c-0.8,0.49-1.5,1.13-2.18,1.77c-0.33,0.31-0.65,0.7-1.03,0.94c-0.13,0.09-0.28,0.12-0.4,0.23
							c-0.05,0.04-0.38,0.48-0.39,0.47c0.32,0.09,0.58,0.32,0.85,0.52c0.27,0.19,0.61,0.35,0.93,0.25
							c-0.07-0.34-0.09-0.69-0.07-1.03c0.01-0.11,0.02-0.22,0.07-0.32c0.12-0.24,0.42-0.35,0.52-0.59c0.05-0.11,0.07-0.26,0.18-0.3
							c0.05-0.02,0.11,0,0.16,0.01C33.13,12.97,33.3,12.94,33.46,12.87z"/>
						<path class="st9" d="M42.66,10.42c-0.37,0.14-0.74,0.18-1.12,0.26c-0.35,0.07-0.68,0.25-1,0.4c-0.9,0.41-1.81,0.82-2.71,1.23
							c-0.24,0.11-0.48,0.22-0.69,0.38c-0.21,0.15-0.38,0.35-0.54,0.54c-0.3,0.34-0.59,0.69-0.88,1.04
							c-0.22,0.27-0.45,0.54-0.67,0.8c-0.12,0.14-0.24,0.28-0.35,0.43c-0.16,0.2-0.3,0.42-0.44,0.63c-0.1,0.16-0.39,0.49-0.41,0.68
							c-0.02,0.3,0.95,0.69,1.22,0.85c-0.06-0.11-0.12-0.22-0.14-0.35c-0.05-0.3,0.15-0.58,0.37-0.78c0.22-0.2,0.49-0.36,0.67-0.6
							c0.14-0.19,0.22-0.42,0.36-0.61c0.26-0.33,0.7-0.47,0.99-0.77c0.04-0.04,0.07-0.08,0.08-0.14c0.01-0.05-0.01-0.09-0.01-0.14
							c-0.02-0.22,0.37-0.49,0.52-0.65c0.23-0.3,0.65-0.6,0.99-0.74c0.41-0.18,0.76-0.42,1.14-0.67c0.2-0.13,0.42-0.27,0.67-0.26
							c0.19,0.01,0.37,0.11,0.47,0.27c0.06-0.22-0.05-0.47-0.25-0.58c-0.05-0.03-0.11-0.06-0.1-0.11c0-0.04,0.03-0.06,0.06-0.09
							C41.41,11.01,42.02,10.67,42.66,10.42z"/>
						<g>
							<path class="st6" d="M41.95,25.85c-1.48,1.44-2.79,1.9-4.04,1.72c1.47-0.82,2.78-1.74,3.75-2.68
								c2.73-2.65,4.3-6.9,3.84-10.46C46.38,18.29,44.92,22.97,41.95,25.85z"/>
							<path class="st6" d="M39.96,22.91c-1.55,1.36-2.85,1.79-4.04,1.6c1.49-0.77,2.83-1.64,3.84-2.53
								c0.65-0.57,1.25-1.21,1.78-1.9c0.24-0.31,0.44-0.76,0.73-1.02c0.2-0.19,0.52-0.33,0.09-0.56c-0.15-0.08-0.27-0.2-0.37-0.34
								c0.1-0.02,0.2,0.08,0.3,0.05c0.04-0.01,0.07-0.03,0.1-0.06c0.21-0.18,0.43-0.36,0.64-0.53c0.3-0.25,0.45-0.89,0.59-1.25
								c0.1-0.25,0.17-0.51,0.26-0.76c0.07-0.2,0.08-0.41,0.15-0.61c0.01-0.02,0.01-0.04,0.01-0.06c0-0.02-0.01-0.03-0.02-0.05
								c-0.08-0.13-0.16-0.27-0.23-0.41c0.05,0.04,0.09,0.09,0.14,0.12c0.21,0.14,0.25-0.15,0.29-0.29c0.06-0.24,0.09-0.5,0.12-0.75
								c0.06-0.5,0.09-1.01,0.07-1.52c0.01,0.15,0.04,0.3,0.05,0.44c0.05,0.56,0.04,1.13-0.01,1.69c-0.04,0.45-0.23,1.07-0.11,1.51
								c0.03,0.12,0.09,0.23,0.09,0.35c-0.35-0.38-0.53,0.83-0.61,1.05c-0.27,0.78-0.6,1.53-1,2.25c-0.38,0.68-1.02,1.3-0.91,2.13
								c0,0.03,0.01,0.06,0,0.09c-0.01,0.02-0.03,0.04-0.05,0.05c-0.04,0.04-0.09,0.07-0.12,0.12c-0.03,0.05-0.02,0.12,0.03,0.15
								c-0.05,0-0.06,0.06-0.06,0.11c0,0.18,0.04,0.35,0.1,0.51c-0.24-0.2-0.44-0.46-0.57-0.75C40.78,22.1,40.39,22.53,39.96,22.91z
								"/>
							<path class="st6" d="M43.22,10.82c-0.12,0.56-0.18,1.12-0.36,1.67c-0.17,0.55-0.39,1.05-0.5,1.61
								c-0.03,0.15-0.03,0.31,0.06,0.43c0.03,0.03,0.04,0.06,0.04,0.11c-0.27-0.06-0.37-0.2-0.57,0.08
								c-0.21,0.29-0.36,0.63-0.56,0.92c-0.37,0.56-0.78,1.12-1.25,1.6c-0.41,0.42-0.29,0.73-0.16,1.29
								c-0.15-0.02-0.29-0.1-0.4-0.21c-0.03-0.03-0.06-0.07-0.11-0.09c-0.12-0.05-0.43,0.23-0.54,0.29
								c-0.27,0.15-0.5,0.37-0.75,0.56c-0.53,0.41-1.1,0.79-1.69,1.12c-1.8,1.01-3.14,1.19-4.23,0.82c1.6-0.47,3.09-1.06,4.26-1.72
								c0.52-0.29,0.97-0.5,1.4-0.92c-0.19-0.15-0.28-0.38-0.39-0.59c-0.15-0.28-0.32-0.55-0.52-0.79c0.21-0.02,0.38,0.17,0.52,0.32
								c0.19,0.2,0.42,0.45,0.68,0.55c0.52,0.2,1.25-0.75,1.56-1.06c0.16-0.16,0.33-0.31,0.49-0.46c-0.24-0.21-0.43-0.48-0.55-0.77
								c0.04,0.01,0.08,0.03,0.12,0.04c0.15,0.06,0.32,0.11,0.48,0.07c0.14-0.04,0.29-0.14,0.4-0.05c0.03,0.02,0.06,0.06,0.1,0.06
								c0.02,0,0.05-0.02,0.06-0.03c0.19-0.18,0.35-0.52,0.5-0.73c0.39-0.55,0.7-1.18,1.09-1.71c0.04-0.05,0.02-0.12-0.01-0.17
								c-0.07-0.19-0.15-0.38-0.22-0.57c0.09,0.06,0.18,0.12,0.26,0.18c0.01,0.01,0.02,0.01,0.03,0.01c0.01,0,0.02-0.01,0.03-0.02
								C42.94,12.21,43.09,11.44,43.22,10.82z"/>
							<path class="st6" d="M32.84,11.54c-0.23,0.16-0.46,0.33-0.68,0.5c-0.2,0.16-0.31,0.28-0.59,0.17
								c-0.14-0.06-0.26-0.15-0.39-0.24s-0.27-0.15-0.43-0.15c0.3,0.27,0.62,0.52,0.94,0.76c-0.15,0.15-0.33,0.19-0.5,0.3
								c-0.19,0.13-0.36,0.35-0.51,0.52c-1.4,1.51-1.86,2.8-1.71,3.98c0.81-1.47,1.72-2.78,2.63-3.77c0.24-0.26,0.49-0.51,0.75-0.75
								c0.12-0.11,0.23-0.24,0.36-0.32c0.05-0.04,0.11-0.05,0.16-0.08c0.03-0.01,0.13-0.12,0.14-0.12c0.16-0.01,0.29,0.11,0.4,0.23
								c0.2,0.21,0.4,0.41,0.6,0.62c-0.15-0.14-0.3-0.29-0.38-0.48c-0.09-0.22-0.09-0.48-0.23-0.67c0.03-0.04,0.72-0.57,0.74-0.55
								c0.01,0.01,0.71-0.44,0.79-0.47c0.1-0.04,0.17-0.07,0.26-0.15c0.11-0.1,0.18-0.09,0.3-0.15c0.05-0.03,0.08-0.08,0.14-0.11
								c0.12,0.11,0.25,0.29,0.41,0.34c0.04,0.01,0.08,0.02,0.12,0.04c0.03,0.02,0.05,0.04,0.07,0.07c0.08,0.1,0.16,0.19,0.24,0.29
								c-0.05-0.3-0.17-0.58-0.35-0.83c0.28-0.12,0.51-0.32,0.78-0.44c0.31-0.13,0.64-0.23,0.96-0.33c0.18-0.05,0.42-0.17,0.61-0.14
								c0.08,0.01,0.14,0.06,0.22,0.06c0.08,0.01,0.2-0.07,0.26,0c0.08,0.09,0.17,0.18,0.26,0.25c0.02-0.13-0.06-0.26-0.07-0.39
								c0-0.01,0-0.02,0.01-0.03c0.01-0.01,0.02-0.02,0.04-0.02c0.1-0.02,0.17-0.08,0.26-0.11c0.1-0.03,0.23-0.04,0.34-0.05
								c0.22-0.03,0.44-0.05,0.66-0.07c0.4-0.03,0.86-0.07,1.26-0.01c-0.66-0.11-1.34-0.14-2.01-0.1c-0.65,0.03-1.26-0.01-1.89,0.2
								c-0.03,0.01-0.06,0.02-0.09,0.02c-0.03,0-0.06-0.02-0.08-0.03c-0.12-0.07-0.25-0.13-0.37-0.2c-0.01,0.14,0.07,0.42-0.07,0.48
								c-0.06,0.02-0.16-0.01-0.23,0c-0.11,0.02-0.23,0.07-0.34,0.1c-0.44,0.14-0.88,0.3-1.3,0.48c-0.28,0.12-0.56,0.25-0.84,0.39
								c-0.15,0.07-0.29,0.15-0.43,0.23c-0.11,0.06-0.2,0.17-0.33,0.14c-0.07-0.02-0.13-0.05-0.18-0.09
								c-0.13-0.08-0.25-0.16-0.38-0.24c0.01,0.15,0.07,0.31,0.17,0.43C33.48,11.27,32.96,11.46,32.84,11.54z"/>
							<path class="st6" d="M38.44,11.56c0.18,0.43-0.47,0.75-0.78,0.87c-0.4,0.16-0.73,0.5-1.13,0.6
								c-0.16,0.04-0.35-0.04-0.43-0.19c-0.02,0.18,0.12,0.33,0.24,0.47c0.01,0.01,0.02,0.03,0.02,0.05c0,0.02-0.01,0.04-0.03,0.06
								c-0.44,0.47-0.96,0.89-1.4,1.37c-0.22,0.24-0.3,0.63-0.67,0.5c-0.18-0.06-0.35-0.15-0.52-0.23
								c-0.11-0.06-0.23-0.12-0.35-0.11c0.17,0.25,0.36,0.48,0.59,0.69c0.02,0.02,0.05,0.04,0.05,0.07c0,0.02-0.01,0.04-0.02,0.06
								c-0.2,0.44-0.47,0.82-0.72,1.23c-1.06,1.77-1.28,3.1-0.94,4.2c0.51-1.59,1.14-3.05,1.83-4.21c0.41-0.69,0.84-1.4,1.42-1.96
								c0.25-0.24,0.43-0.5,0.73-0.25c0.14,0.12,0.5,0.42,0.54,0.6c-0.07-0.3-0.28-0.59-0.25-0.9c0.01-0.13,0.07-0.25,0.12-0.37
								c0.18-0.41,0.35-0.6,0.7-0.89c0.21-0.18,0.53-0.64,0.82-0.4c0.1,0.08,0.17,0.2,0.28,0.28c-0.28-0.69,0.43-1.03,0.93-1.31
								c0.26-0.15,0.52-0.16,0.81-0.22c0.25-0.05,0.19-0.08,0.4,0.14c0.15,0.16,0.32,0.3,0.49,0.44c-0.12-0.33-0.33-0.62-0.59-0.86
								c0.06-0.13,0.33-0.18,0.45-0.24c0.19-0.09,0.39-0.18,0.59-0.25c0.39-0.13,0.84-0.3,1.26-0.33c-0.18,0.02-0.36,0.04-0.53,0.06
								c-0.26,0.04-0.52,0.09-0.78,0.15c-0.13,0.03-0.22,0.06-0.32,0.13c-0.09,0.07-0.17,0.13-0.3,0.09
								c-0.12-0.04-0.21-0.14-0.3-0.23c-0.06-0.07-0.12-0.13-0.18-0.2c-0.01,0.14,0.03,0.26,0.05,0.4c0.02,0.14-0.01,0.15-0.13,0.18
								c-0.29,0.08-0.56,0.2-0.83,0.32c-0.17,0.08-0.51,0.34-0.7,0.29c-0.08-0.02-0.15-0.08-0.21-0.15c-0.1-0.11-0.2-0.21-0.3-0.32
								C38.33,11.33,38.39,11.44,38.44,11.56z"/>
						</g>
						
							<ellipse transform="matrix(0.7153 -0.6988 0.6988 0.7153 -4.3703 29.2239)" class="st3" cx="33.68" cy="19.98" rx="2.53" ry="10.32"/>
						<path class="st2" d="M26.03,12.72c1.02-1,5.15,1.57,9.21,5.73c4.06,4.16,6.53,8.34,5.51,9.34c-0.45,0.43-2.36,1.06-2.7,1.39
							c-0.94,0.91-4.72-1.44-8.44-5.25c-3.72-3.81-5.98-7.64-5.04-8.55C24.91,15.05,25.59,13.15,26.03,12.72z"/>
						<path class="st5" d="M37.34,22.81c0.15-0.19,0.29-0.39,0.42-0.6c-0.44-0.24-0.75-0.65-1.06-1.04c-0.12-0.15-0.24-0.3-0.4-0.41
							c-0.11-0.08-0.23-0.14-0.34-0.22c-0.02-0.01-0.04-0.03-0.05-0.05c-0.01-0.03,0-0.05,0.01-0.08c0.09-0.21,0.18-0.42,0.27-0.63
							c-0.21,0.02-0.41,0.08-0.6,0.16c-0.08,0.04-0.17,0.08-0.25,0.05c-0.04-0.01-0.07-0.04-0.11-0.07
							c-0.09-0.07-0.18-0.15-0.27-0.22c-0.04-0.03-0.08-0.06-0.1-0.1c-0.02-0.04-0.02-0.09-0.02-0.14c0.01-0.2,0.01-0.41,0.02-0.61
							c-0.16,0.02-0.38,0.1-0.53,0.08c-0.12-0.02-0.18-0.12-0.27-0.19c-0.15-0.12-0.44-0.22-0.43-0.45c0-0.04,0.02-0.08,0.03-0.13
							c0.06-0.17,0.13-0.33,0.19-0.5c-0.22,0.12-0.41,0.3-0.55,0.5c-0.23-0.26-0.53-0.46-0.87-0.55c0.2-0.3,0.34-0.64,0.41-0.99
							c-0.2,0.14-0.4,0.28-0.6,0.42c-0.06,0.04-0.13,0.09-0.21,0.08c-0.04-0.01-0.08-0.03-0.11-0.05c-0.19-0.12-0.34-0.28-0.49-0.44
							c-0.09-0.09-0.34-0.17-0.38-0.29c-0.03-0.11,0.19-0.44,0.23-0.55c0.07-0.18,0.14-0.36,0.21-0.55
							c-0.3,0.19-0.58,0.42-0.83,0.66c-0.02,0.02-0.04,0.04-0.06,0.04c-0.02,0.01-0.04,0-0.06,0c-0.22-0.02-0.38-0.14-0.58-0.25
							c-0.2-0.1-0.41-0.19-0.62-0.27c-0.09-0.03-0.45-0.22-0.54-0.15c0.1-0.08,0.15-0.19,0.21-0.3c0.12-0.25,0.24-0.5,0.37-0.76
							c-0.05,0.09-0.17,0.13-0.26,0.19c-0.12,0.08-0.2,0.21-0.29,0.32c-0.1,0.12-0.29,0.34-0.45,0.37c-0.14,0.03-0.36-0.09-0.5-0.13
							c-0.05-0.01-0.1-0.03-0.12-0.07c-0.03-0.04-0.02-0.1-0.01-0.15c0.09-0.46,0.23-0.92,0.17-1.39c-0.58,0.5-0.9,1.25-1.52,1.71
							c-0.15,0.11-0.3,0.12-0.46,0.2c-0.16,0.08-0.32,0.18-0.46,0.3c-0.28,0.23-0.5,0.52-0.62,0.86c-0.07,0.2-0.1,0.42-0.11,0.65
							c-0.27-0.74-0.28-1.3,0-1.58c0.33-0.32,1-2.19,1.44-2.62c1.01-0.98,5.09,1.55,9.11,5.67c3.27,3.35,5.5,6.71,5.66,8.38
							c-0.01-0.13-0.19-0.34-0.26-0.46c-0.1-0.17-0.2-0.34-0.31-0.51c-0.23-0.36-0.47-0.72-0.72-1.07
							c-0.27-0.39-0.56-0.76-0.85-1.13c-0.14-0.18-0.26-0.35-0.38-0.53c-0.08-0.13-0.25-0.23-0.29-0.37
							c-0.03-0.1,0.05-0.25-0.03-0.33c-0.1-0.1-0.31,0.01-0.4,0.07C37.62,22.64,37.4,22.73,37.34,22.81z"/>
						<path class="st10" d="M38.15,22.04c-0.97-0.84-1.84-1.87-2.76-2.77c-0.5-0.49-1-0.97-1.5-1.46c-0.42-0.41-0.84-0.82-1.29-1.21
							c-0.72-0.63-1.5-1.19-2.3-1.71c-0.42-0.27-0.85-0.53-1.28-0.78c-0.18-0.11-0.36-0.21-0.54-0.32
							c-0.08-0.05-0.16-0.09-0.22-0.16c-0.09-0.11-0.12-0.25-0.2-0.36c-0.2-0.27-0.61-0.22-0.93-0.13
							c-0.48,0.14-0.95,0.34-1.38,0.59c0.65-3.76,8.73,3.99,9.54,4.81c0.59,0.61,1.25,1.28,1.78,1.93c0.22,0.27,0.44,0.54,0.61,0.84
							c0.16,0.29,0.52,0.47,0.58,0.81C38.23,22.11,38.19,22.08,38.15,22.04z"/>
						
							<ellipse transform="matrix(0.7153 -0.6988 0.6988 0.7153 -6.8303 28.1463)" class="st3" cx="31.13" cy="22.46" rx="2.26" ry="9.22"/>
						<g>
							<polygon class="st3" points="40.68,25.47 38.41,26.92 38.3,27.17 40.75,25.84 							"/>
							<polygon class="st3" points="36.23,23.5 38.68,22.17 38.61,21.8 36.34,23.25 							"/>
							<path class="st3" d="M39.52,24.47l-0.09-0.08l-2.22,1.17c-0.5-0.9-1.2-1.91-2.06-2.95l1.47-1.21l-0.09-0.08l-1.57,1.02
								l0.01,0.06c-0.54-0.65-1.13-1.31-1.77-1.96c-0.01-0.01-0.02-0.02-0.03-0.03l0.15,0.1l1.43-1.53l-0.15-0.07l-1.49,1.44
								c-0.65-0.66-1.31-1.28-1.95-1.83l0.09,0.02L32.32,17l-0.08-0.09l-1.26,1.44c-1.05-0.89-2.07-1.62-2.96-2.13l0.05,0.01
								l1.24-2.2l-0.08-0.09l-1.47,2.13c-0.74-0.4-1.38-0.65-1.9-0.72c1.63,0.48,4.39,2.49,7.13,5.29c2.74,2.8,4.67,5.61,5.11,7.25
								c-0.06-0.54-0.32-1.24-0.74-2.03L39.52,24.47z"/>
							<polygon class="st3" points="34.34,21.31 36.63,19.73 36.53,19.37 34.42,21.04 							"/>
							<polygon class="st3" points="28.26,12.76 27.89,12.68 26.49,15.08 26.75,14.98 							"/>
							<polygon class="st3" points="31.88,14.92 31.52,14.84 30.12,17.24 30.37,17.14 							"/>
							<polygon class="st3" points="32.53,19.11 34.27,17.06 33.91,16.94 32.27,19.19 							"/>
						</g>
					</g>
				</g>
				<g>
					<path class="st2" d="M37.38,28.47c-1.26,0.11-4.23-1.87-7.17-4.89c-3.23-3.31-5.23-6.63-4.61-7.6c-0.07-0.01-0.13-0.01-0.19,0
						c-0.03,0.02-0.06,0.03-0.08,0.05c-0.84,0.82,1.19,4.27,4.54,7.7c3.25,3.32,6.53,5.41,7.51,4.79
						C37.38,28.51,37.38,28.49,37.38,28.47z"/>
					<path class="st2" d="M31.48,23.55c1.94,1.99,3.92,3.53,5.43,4.33c-1.56-0.66-3.82-2.34-6.03-4.61
						c-2.8-2.86-4.64-5.73-4.66-7.11c-0.13-0.05-0.24-0.09-0.34-0.12c-0.27,1.23,1.63,4.32,4.63,7.39c2.65,2.7,5.35,4.59,6.86,4.88
						c-0.04-0.21-0.14-0.45-0.26-0.69c-1.49-0.82-3.39-2.32-5.27-4.24c-2.54-2.6-4.29-5.21-4.61-6.7c-0.15-0.09-0.29-0.17-0.42-0.25
						C26.85,17.83,28.68,20.69,31.48,23.55z"/>
				</g>
			</g>
		</g>
	</g>
	<g>
		<path class="st8" d="M53.13,66.6H13.58c-3.83,0-6.93-3.1-6.93-6.93v-0.95c0-3.83,3.1-6.93,6.93-6.93h39.54
			c3.83,0,6.93,3.1,6.93,6.93v0.95C60.06,63.5,56.95,66.6,53.13,66.6z"/>
		<path class="st9" d="M52.88,52.56c-0.33-0.06-0.68-0.08-1.04-0.08c-1.86,0-3.72,0-5.59,0c-4.78,0-9.56,0-14.34,0
			c-4.56,0-9.12,0-13.68,0c-0.54,0-1.09,0.06-1.6-0.11c0.57,0.83,1.76,0.87,2.77,0.85c1.42-0.03,2.85-0.01,4.23,0.28
			c1.39,0.29,2.74,0.87,3.77,1.84c-0.13-0.55-0.26-1.11-0.39-1.66c-0.02-0.08-0.04-0.18,0.02-0.25c0.05-0.05,0.12-0.06,0.19-0.06
			c0.8-0.03,1.56-0.19,2.34-0.23c2.1-0.11,4.28-0.32,5.72,1.51c-0.03-0.25-0.07-0.5-0.1-0.76c-0.01-0.09-0.02-0.19,0.03-0.27
			c0.07-0.1,0.2-0.11,0.32-0.11c1.24-0.01,2.49-0.02,3.73-0.02c0.62,0,1.26,0,1.83,0.25c0.43,0.2,0.79,0.53,1.13,0.85
			c0.17-0.21,0.03-0.53,0.09-0.8c0.1-0.42,0.63-0.54,1.06-0.58c0.84-0.07,1.68-0.14,2.52-0.08c1.55,0.11,3.05,0.67,4.34,1.53
			c-0.23-0.41,0.03-0.95,0.43-1.19c0.4-0.24,0.89-0.26,1.36-0.27c1.37-0.04,2.87-0.03,3.91,0.84C55,53.26,54.02,52.75,52.88,52.56z"
			/>
		<path class="st6" d="M21.95,51.79h-1.29c3.83,0,6.93,3.1,6.93,6.93v0.95c0,3.83-3.1,6.93-6.93,6.93h1.29
			c3.83,0,6.93-3.1,6.93-6.93v-0.95C28.89,54.89,25.78,51.79,21.95,51.79z"/>
		<path class="st6" d="M29.67,51.79h-1.29c3.83,0,6.93,3.1,6.93,6.93v0.95c0,3.83-3.1,6.93-6.93,6.93h1.29
			c3.83,0,6.93-3.1,6.93-6.93v-0.95C36.61,54.89,33.5,51.79,29.67,51.79z"/>
		<path class="st6" d="M37.4,51.79h-1.29c3.83,0,6.93,3.1,6.93,6.93v0.95c0,3.83-3.1,6.93-6.93,6.93h1.29c3.83,0,6.93-3.1,6.93-6.93
			v-0.95C44.33,54.89,41.23,51.79,37.4,51.79z"/>
		<path class="st6" d="M45.12,51.79h-1.29c3.83,0,6.93,3.1,6.93,6.93v0.95c0,3.83-3.1,6.93-6.93,6.93h1.29
			c3.83,0,6.93-3.1,6.93-6.93v-0.95C52.05,54.89,48.95,51.79,45.12,51.79z"/>
		<path class="st6" d="M52.84,51.79h-1.29c3.83,0,6.93,3.1,6.93,6.93v0.95c0,3.83-3.1,6.93-6.93,6.93h1.29
			c3.83,0,6.93-3.1,6.93-6.93v-0.95C59.77,54.89,56.67,51.79,52.84,51.79z"/>
		<path class="st6" d="M59.94,57.47c-0.59,3.23-3.41,5.69-6.82,5.69c-0.47,0-0.94,0-1.41,0c-0.4,0-0.73,0.04-0.82-0.44
			c-0.03-0.17-0.02-0.34,0-0.51c-0.35,0.26-0.71,0.53-1.1,0.72c-0.96,0.47-2.23,0.23-3.27,0.23c-0.85,0-1.7,0-2.55,0
			c-0.23,0-0.68,0.1-0.82-0.11c-0.07-0.11-0.03-0.95,0.02-1.07c-0.1,0.23-0.36,0.35-0.6,0.46c-0.6,0.26-1.27,0.69-1.91,0.73
			c-0.74,0.05-1.5,0-2.24,0c-0.53,0-1.06,0-1.59,0c-0.26,0-1.06,0.17-1.19-0.11c-0.05-0.11-0.04-0.24-0.02-0.36
			c0.02-0.12,0.04-0.25,0.01-0.36c-0.29,0.15-0.59,0.3-0.88,0.45c-0.12,0.06-0.24,0.12-0.36,0.17c-0.93,0.36-2.1,0.21-3.08,0.21
			c-0.99,0-2.34,0.28-3.15-0.37c-0.06-0.05-0.11-0.1-0.14-0.17c-0.03-0.07-0.02-0.14-0.02-0.21c0.01-0.18,0.02-0.35,0.03-0.53
			c-1.62,1.61-3.87,1.28-5.96,1.28c-0.77,0-1.53,0-2.3,0c-0.08,0-0.77-0.07-0.82,0c-1.09,1.73-2.88,3.01-5.01,3.44h39.2
			c3.83,0,6.93-3.1,6.93-6.93v-0.95C60.06,58.29,60.01,57.88,59.94,57.47z"/>
		<path class="st8" d="M19.85,64.28c0,0,33.88,0.14,34.1,0.07s2.51-0.36,4.23-2.01c0,0-3.15,1.22-4.3,1.36
			c-1.15,0.14-33.31,0.14-33.31,0.14"/>
		<path class="st6" d="M10.62,53.59c-0.42,0.24-0.81,0.53-1.16,0.9c-1.59,1.72-2.52,3.91-2.38,6.1c0.09,1.35,0.6,2.71,1.59,3.76
			c1.2,1.27,3.15,2.24,4.88,2.01c0.6-0.08,1.19-0.16,1.79-0.24c0.52-0.07,1.04-0.14,1.51-0.37c0.72-0.35,1.21-1.03,1.67-1.68
			c0.48-0.67,0.96-1.37,1.2-2.16c0.24-0.8,0.2-1.65,0.16-2.48c-0.06-1.09-0.13-2.19-0.44-3.24c-0.31-1.05-0.88-2.05-1.76-2.7
			c-1.44-1.06-3.42-0.98-5.16-0.59C11.85,53.05,11.2,53.26,10.62,53.59z"/>
		<path class="st8" d="M19.27,58.83c0-2.95-2.39-5.34-5.34-5.34h-0.99c2.95,0,5.34,2.39,5.34,5.34c0,0,0,0.73,0,0.73
			c0,1.03-0.31,1.99-0.84,2.82l-0.04-0.02c-0.18,0.34-0.42,0.65-0.68,0.93c-0.05,0.05-0.1,0.09-0.15,0.14
			c-0.09,0.09-0.18,0.17-0.28,0.25c-0.04,0.03-0.09,0.06-0.13,0.1c-0.75,0.57-1.68,0.91-2.63,0.91c-1.04-0.01-2.02-0.42-2.63-1.1
			c-0.92-1.03-1.91-2.25-2.03-3.63c-0.1-1.17,0.48-2.41,1.48-3.18c0.95-0.73,2.25-1.05,3.57-0.88c0.59,0.08,1.42,0.29,2.03,0.87
			c0.52,0.5,0.77,1.24,0.62,1.84c-0.08,0.29-0.24,0.57-0.4,0.81c-0.46,0.71-1.51,1.87-2.39,1.97c-0.28,0.04-0.51-0.05-0.72-0.26
			c-0.55-0.54-0.87-1.07-0.93-1.59c-0.06-0.48,0.18-1.1,0.66-1.26c0.1-0.03,0.2-0.04,0.26-0.02c0.13,0.05,0.27,0.25,0.36,0.42
			c0.25,0.43,0.28,0.91-0.4,0.73c-0.04,0.24-0.07,0.48-0.11,0.72c0,0.02-0.01,0.05,0,0.07c0.01,0.03,0.04,0.04,0.07,0.05
			c0.75,0.29,1.58,0.22,1.68-0.73c0.05-0.51-0.17-0.97-0.39-1.35c-0.2-0.34-0.46-0.71-0.91-0.87c-0.27-0.09-0.58-0.09-0.9,0.02
			c-0.88,0.3-1.46,1.3-1.34,2.33c0.09,0.76,0.5,1.5,1.22,2.2c0.43,0.41,0.96,0.6,1.53,0.53c1.32-0.15,2.58-1.6,3.12-2.43
			c0.2-0.31,0.41-0.68,0.52-1.11c0.25-0.95-0.1-2.06-0.89-2.81c-0.64-0.61-1.53-1-2.59-1.14c-1.57-0.21-3.15,0.18-4.31,1.08
			c-1.29,0.99-2,2.54-1.87,4.06c0.15,1.68,1.25,3.05,2.28,4.21c0.79,0.88,2.05,1.42,3.37,1.43c0.01,0,0.03,0,0.04,0
			c1.19,0,2.35-0.45,3.28-1.17c1.44-1.13,2.41-3.11,2.41-4.94C19.27,59.56,19.27,58.83,19.27,58.83z"/>
	</g>
</g>
</svg>
